<svg id="Glyph" viewBox="0 0 64 64" xmlns="http://www.w3.org/2000/svg" width="300" height="300" version="1.1" xmlns:xlink="http://www.w3.org/1999/xlink" xmlns:svgjs="http://svgjs.dev/svgjs"><g width="100%" height="100%" transform="matrix(1,0,0,1,0,0)"><path d="m33.49 38.75c-.35-.27-.85-.26-1.18.03l-7.3 6.35 6.06 3.02c.49.25 1.09.01 1.29-.5l2.65-6.89c.15-.39.03-.82-.3-1.07l-1.21-.93z" fill="#6c63ff" fill-opacity="1" data-original-color="#000000ff" stroke="none" stroke-opacity="1"/><path d="m16.51 38.75-1.21.93c-.33.25-.45.69-.3 1.07l2.65 6.89c.2.51.8.75 1.29.5l6.06-3.02-7.3-6.35c-.34-.29-.83-.31-1.18-.03z" fill="#6c63ff" fill-opacity="1" data-original-color="#000000ff" stroke="none" stroke-opacity="1"/><path d="m38.29 16.19h8.84v2.64c0 .58.7.88 1.12.48l3.26-3.12h2.98c1.18 0 2.15-.97 2.15-2.15v-7.89c0-1.18-.97-2.15-2.15-2.15h-16.21c-1.18 0-2.15.97-2.15 2.15v7.88c0 1.18.97 2.15 2.15 2.15zm1.83-9.19h12.21c.55 0 1 .45 1 1s-.45 1-1 1h-12.21c-.55 0-1-.45-1-1s.45-1 1-1zm0 4h5c.55 0 1 .45 1 1s-.45 1-1 1h-5c-.55 0-1-.45-1-1s.45-1 1-1z" fill="#6c63ff" fill-opacity="1" data-original-color="#000000ff" stroke="none" stroke-opacity="1"/><path d="m35.51 45.01-1.29 3.36c-.43 1.13-1.53 1.88-2.74 1.88-.45 0-.9-.11-1.31-.31l-5.17-2.58-5.17 2.58c-.41.2-.86.31-1.31.31-1.21 0-2.31-.76-2.74-1.88l-2.65-6.89c-.1-.26-.15-.53-.18-.8l-.16.02c-1.43.2-2.8.69-4.04 1.43-2.95 1.78-4.76 4.98-4.76 8.43v7.73c0 .94.76 1.71 1.71 1.71h4.79v-6c0-.55.45-1 1-1s1 .45 1 1v6h25v-6c0-.55.45-1 1-1s1 .45 1 1v6h4.79c.94 0 1.71-.76 1.71-1.71v-1.83c-5.54-1.15-9.82-5.76-10.49-11.46z" fill="#6c63ff" fill-opacity="1" data-original-color="#000000ff" stroke="none" stroke-opacity="1"/><path d="m48.71 32.15c-6.24 0-11.29 5.06-11.29 11.29s5.06 11.29 11.29 11.29 11.29-5.06 11.29-11.29-5.06-11.29-11.29-11.29zm-.92 10.19c0 .88-.59 1.66-1.44 1.89l-1.79.49c-.18.05-.3.21-.3.4v.96h2.53c.55 0 1 .45 1 1s-.45 1-1 1h-3.53c-.55 0-1-.45-1-1v-1.96c0-1.08.73-2.04 1.77-2.33l1.79-.49-.03-1.52-2.53.04c-.55 0-1-.45-1-1s.45-1 1-1h2.57c1.08 0 1.96.88 1.96 1.96zm7.36 4.74c0 .55-.45 1-1 1s-1-.45-1-1v-2.63h-2.98c-.55 0-1-.45-1-1v-3.63c0-.55.45-1 1-1s1 .45 1 1v2.63h1.98v-2.63c0-.55.45-1 1-1s1 .45 1 1v7.27z" fill="#6c63ff" fill-opacity="1" data-original-color="#000000ff" stroke="none" stroke-opacity="1"/><path d="m9.4 27.26h2.71c.57 4.64 3.47 8.58 7.45 10.49l5.44 4.73 5.34-4.63c.68-.31 1.34-.67 1.96-1.09h-1.3s-.67 0-.67 0 0 0-.01 0c-.58 0-1.13-.16-1.61-.42-1.25.45-2.57.68-3.92.66-5.95-.11-10.79-5.22-10.79-11.4v-5.6h.48c1.86 0 3.7-.26 5.47-.76 1.77-.51 3.47-1.26 5.05-2.24 3.16 1.96 6.8 3 10.52 3h.48v6c0 1.1-.16 2.18-.47 3.2.23.15.44.31.63.5h1.31c.23-.79.39-1.61.47-2.45h.88v3.7c0 .41-.33.75-.75.75h-2.99c-.18-.61-.74-1.05-1.41-1.05h-3.35c-.82 0-1.48.66-1.48 1.48v1.15c0 .82.66 1.48 1.48 1.48h3.35c.67 0 1.22-.44 1.41-1.05h2.99c1.51 0 2.75-1.23 2.75-2.75v-3.72c1.01-.12 1.81-1.1 1.81-2.29v-2.62c0-1.28-.91-2.32-2.02-2.32h-1.6v-1.81h-.71c-2.29 0-4.15-1.86-4.15-4.15v-6.63c-2.45-2.12-5.64-3.4-9.13-3.4-7.73 0-14 6.27-14 14v2h-1.6c-1.11 0-2.02 1.04-2.02 2.32v2.62c0 1.28.91 2.32 2.02 2.32z" fill="#6c63ff" fill-opacity="1" data-original-color="#000000ff" stroke="none" stroke-opacity="1"/></g></svg>