<svg id="Layer_1" viewBox="0 0 512 512" xmlns="http://www.w3.org/2000/svg" data-name="Layer 1" width="300" height="300" version="1.1" xmlns:xlink="http://www.w3.org/1999/xlink" xmlns:svgjs="http://svgjs.dev/svgjs"><g width="100%" height="100%" transform="matrix(1,0,0,1,0,0)"><path d="m256 16c132.548 0 240 107.452 240 240s-107.452 240-240 240-240-107.452-240-240 107.452-240 240-240zm-165.194 335.211h330.394v-237.372h-330.394zm230.564-140.711c0-9.119-7.885-17.007-20.635-22.388-24.909-10.514-64.561-10.513-89.47 0-12.749 5.381-20.635 13.269-20.635 22.388v99.563c0 9.119 7.886 17.006 20.634 22.387 24.91 10.514 64.562 10.514 89.472 0 12.748-5.381 20.634-13.268 20.634-22.387zm65.044-32.443a4.644 4.644 0 0 0 3.334-7.876l-36.775-43.3a4.634 4.634 0 0 0 -6.53-.544l-37.522 44.084a4.64 4.64 0 0 0 3.537 7.627l13.845.01v97.285a4.644 4.644 0 0 0 4.644 4.644h36.978a4.644 4.644 0 0 0 4.644-4.644v-97.285zm-186.872 0a4.644 4.644 0 0 0 3.335-7.876l-36.776-43.3a4.634 4.634 0 0 0 -6.53-.544l-37.522 44.084a4.64 4.64 0 0 0 3.538 7.627l13.844.01v97.285a4.644 4.644 0 0 0 4.644 4.644h36.978a4.644 4.644 0 0 0 4.644-4.644v-97.285zm221.658 182.443h-330.394v12.445h330.394zm-125.948 21.732h-78.5v18.033h78.5zm70.134 27.321h-218.772a13.105 13.105 0 0 0 -13.054 13.055v13.054h244.881v-13.054a13.105 13.105 0 0 0 -13.055-13.055zm-165.468-183.087v17.222c0 5.037 5.709 9.965 14.938 13.861 22.519 9.5 59.769 9.5 82.288 0 9.229-3.9 14.938-8.824 14.938-13.861v-17.222c-24.712 19.052-87.453 19.051-112.164 0zm95.282 23.734 5.771-1.924a4.624 4.624 0 0 0 -2.9-8.78l-5.771 1.923a4.624 4.624 0 0 0 2.9 8.781zm-95.284 9.452v17.222c0 5.038 5.709 9.966 14.938 13.861 22.52 9.5 59.769 9.5 82.288 0 9.229-3.9 14.938-8.823 14.938-13.861v-17.22c-24.711 19.052-87.453 19.052-112.164 0zm95.284 24.665 5.771-1.924a4.624 4.624 0 0 0 -2.9-8.78l-5.771 1.923a4.624 4.624 0 0 0 2.9 8.781zm-95.284 8.525v17.222c0 5.037 5.709 9.966 14.938 13.861 22.519 9.5 59.769 9.5 82.288 0 9.229-3.9 14.938-8.824 14.938-13.861v-17.222c-24.712 19.052-87.453 19.051-112.164 0zm95.284 24.1 5.771-1.923a4.624 4.624 0 0 0 -2.9-8.781l-5.771 1.924a4.624 4.624 0 1 0 2.9 8.78zm1.942-120.306c-22.519-9.5-59.769-9.5-82.288 0-19.873 8.388-19.873 19.333 0 27.721 22.52 9.505 59.769 9.505 82.288 0 19.873-8.388 19.874-19.333 0-27.721zm-116.089-27.866h8.465l-26.954-31.737-26.954 31.737h8.465a4.645 4.645 0 0 1 4.645 4.644v97.286h27.689v-97.286a4.644 4.644 0 0 1 4.644-4.644zm186.872 0h8.465l-26.954-31.737-26.954 31.737h8.465a4.644 4.644 0 0 1 4.644 4.644v97.286h27.689v-97.286a4.645 4.645 0 0 1 4.645-4.644z" fill-rule="evenodd" fill="#6c63ff" fill-opacity="1" data-original-color="#000000ff" stroke="none" stroke-opacity="1"/></g></svg>