<svg id="Layer_1" enable-background="new 0 0 512 512" viewBox="0 0 512 512" xmlns="http://www.w3.org/2000/svg" width="300" height="300" version="1.1" xmlns:xlink="http://www.w3.org/1999/xlink" xmlns:svgjs="http://svgjs.dev/svgjs"><g width="100%" height="100%" transform="matrix(1,0,0,1,0,0)"><path clip-rule="evenodd" d="m436.99 121.14-22.87-4.15-11.01-20.47c-1.02-1.9-3-3.08-5.15-3.08s-4.14 1.18-5.16 3.08l-11.01 20.47-22.88 4.15c-2.12.39-3.86 1.9-4.52 3.95-.67 2.05-.15 4.3 1.34 5.85l16.07 16.8-3.12 23.04c-.29 2.13.61 4.26 2.36 5.53 1.74 1.27 4.04 1.47 5.98.54l20.95-10.09 20.94 10.09c.81.39 1.68.58 2.54.58 1.22 0 2.42-.38 3.44-1.12 1.74-1.27 2.65-3.39 2.36-5.53l-3.13-23.04 16.07-16.8c1.49-1.55 2-3.8 1.34-5.85-.68-2.05-2.41-3.56-4.54-3.95zm-39.04 77.09c-34.62 0-62.79-28.17-62.79-62.79 0-34.63 28.17-62.8 62.79-62.8s62.79 28.17 62.79 62.8c0 34.62-28.16 62.79-62.79 62.79zm37.11 125.19-14.37-9.08v-83.55c4.94-1.18 9.74-2.73 14.37-4.63zm-169.93 130c-7.55-3.47-17.8-8.49-29.83-15.17 2.03-.95 3.92-2.16 5.57-3.81 2.39-2.38 3.94-5.41 4.81-8.93 5.71 3.15 11.37 6.19 16.87 8.93.82.41 1.72.61 2.61.61s1.78-.2 2.61-.61c11.92-5.93 113.17-57.74 136.02-116.92l13.69 8.65c-28.29 66.22-135.02 119.03-152.35 127.25zm-51.65 8.9c5.82 0 10.55-4.73 10.55-10.55 0-5.81-4.72-10.54-10.53-10.55h-.02c-3.23 0-5.85-2.62-5.85-5.85 0-3.24 2.52-6.04 5.9-5.85h1.07c6.51.05 14.62.02 18-3.36 1.5-1.5 2.23-3.85 2.23-7.19 0-5.81-4.72-10.54-10.54-10.55h-.02c-3.23 0-5.85-2.62-5.85-5.85 0-3.24 2.62-5.86 5.85-5.86h1.06c6.6.04 14.85.02 18.31-3.44 1.5-1.49 2.22-3.82 2.22-7.11 0-5.78-4.67-10.48-10.43-10.55h-.12c-3.23 0-5.85-2.62-5.85-5.85 0-3.32 2.79-5.93 6.11-5.85l2.45.01c6.89.06 15.43.13 19.03-3.43 1.52-1.51 2.25-3.84 2.25-7.14 0-5.82-4.73-10.55-10.55-10.55h-47.32c-1.88 0-3.64-.9-4.74-2.42s-1.4-3.48-.82-5.26c6.82-20.72 10.09-33.55 11.41-54.76.49-7.97-5.61-15.87-13.32-17.26-8.47-1.52-15.71 5.52-19.89 19.32l-6.7 22.12c-9.18 30.3-41.41 38.76-72.58 46.95l-2.97.78v99.96c33.11 11.59 62.83 11.05 97.03 10.41 7.99-.16 16.17-.32 24.63-.32zm138.68-123.15c.88.48 1.85.73 2.83.73 1.09 0 2.17-.3 3.13-.91l32.56-20.56c-20 41.98-85.42 83.9-125.5 104.21-6.46-3.28-13.11-6.9-19.82-10.74-.62-1.84-1.44-3.59-2.49-5.19 3.36-1 6.49-2.61 9.06-5.17 3.76-3.75 5.66-8.93 5.66-15.4 0-4.28-1.21-8.28-3.32-11.68 4.12-.95 7.97-2.65 11.04-5.69 3.79-3.76 5.72-8.96 5.72-15.45 0-12.27-9.99-22.26-22.26-22.26h-39.29c5.48-17.49 8.27-30.28 9.49-50.01.86-13.84-9.43-27.08-22.93-29.51-5.54-.99-24.26-1.96-33.17 27.45l-6.7 22.12c-2.63 8.67-7.94 15.13-15 20.25-4.96-9.37-7.49-18.29-7.49-26.56v-173.87l131.49-42.43 44.48 14.35c-6.24 12.88-9.74 27.32-9.74 42.57 0 36.3 19.84 68.02 49.23 84.98v113.63c-.01 2.14 1.15 4.11 3.02 5.14zm23.05-24.82v-83.56c-4.94-1.18-9.75-2.73-14.37-4.62v97.25zm25.87-12.39 7.91 5v-74.11c-3.63.41-7.31.64-11.04.64s-7.41-.23-11.04-.64v74.11l7.91-5c1.91-1.21 4.35-1.21 6.26 0zm-295.12-7.15c0 12.28 3.51 25.16 10.38 38.35 5.22-1.73 10.17-3.63 14.72-5.83-6.03-11.26-9.09-22.17-9.09-32.51v-178.15c0-2.54 1.64-4.79 4.06-5.57l137.35-44.32c1.17-.38 2.42-.38 3.6 0l48.56 15.67c3.08-4.78 6.56-9.28 10.41-13.45l-60.76-19.61-159.2 51.37v194.05zm390.04-159.38c0 36.3-19.84 68.02-49.23 84.98v113.63c0 2.13-1.16 4.1-3.03 5.13s-4.15.96-5.95-.18l-10.28-6.49c-33.56 75.1-154.66 130.32-159.95 132.7-.76.35-1.58.52-2.4.52s-1.64-.17-2.4-.52c-8.7-3.91-17.83-8.48-27.02-13.42-.01 12.27-9.99 22.25-22.26 22.25-8.38 0-16.49.15-24.42.3-7.46.14-14.85.28-22.19.28-25.29 0-50.18-1.75-76.77-10.67-2.89 6.23-9.16 10.59-16.47 10.59h-39.44c-10.03 0-18.18-8.16-18.18-18.18v-108.6c0-10.02 8.16-18.18 18.18-18.18h39.45c7.46 0 13.88 4.53 16.68 10.98l1.5-.4c4.44-1.16 8.83-2.33 13.13-3.53-7.09-14.21-10.69-28.24-10.69-41.8v-198.32c0-2.54 1.64-4.79 4.06-5.57l165.06-53.26c1.17-.38 2.42-.38 3.6 0l68.64 22.15c16.96-14.01 38.69-22.44 62.35-22.44 54.04.01 98.03 43.99 98.03 98.05z" fill-rule="evenodd" fill="#6c63ff" fill-opacity="1" data-original-color="#000000ff" stroke="none" stroke-opacity="1"/></g></svg>