<svg id="Layer_1" enable-background="new 0 0 512 512" viewBox="0 0 512 512" xmlns="http://www.w3.org/2000/svg" width="300" height="300" version="1.1" xmlns:xlink="http://www.w3.org/1999/xlink" xmlns:svgjs="http://svgjs.dev/svgjs"><g width="100%" height="100%" transform="matrix(1,0,0,1,0,0)"><path clip-rule="evenodd" d="m94.54 170.19c0 3.23-2.63 5.85-5.85 5.85h-48.13c-3.21 0-5.86-2.62-5.86-5.85 0-3.24 2.64-5.86 5.86-5.86h48.13c3.22 0 5.85 2.62 5.85 5.86zm-9.59 245.66c0 3.23-2.64 5.85-5.85 5.85h-57.24c-3.21 0-5.86-2.62-5.86-5.85s2.64-5.85 5.86-5.85h57.24c3.2 0 5.85 2.62 5.85 5.85zm-68.95-61.41c0-3.23 2.64-5.86 5.86-5.86h48.13c3.21 0 5.85 2.62 5.85 5.86s-2.63 5.85-5.85 5.85h-48.13c-3.21 0-5.86-2.62-5.86-5.85zm0-61.42c0-3.23 2.64-5.86 5.86-5.86h48.13c3.21 0 5.85 2.63 5.85 5.86s-2.63 5.85-5.85 5.85h-48.13c-3.21 0-5.86-2.61-5.86-5.85zm0-61.41c0-3.23 2.64-5.86 5.86-5.86h48.13c3.21 0 5.85 2.62 5.85 5.86s-2.63 5.85-5.85 5.85h-48.13c-3.21 0-5.86-2.62-5.86-5.85zm57.24-122.83c0-3.23 2.6-5.86 5.86-5.86h57.19c3.25 0 5.85 2.63 5.85 5.86s-2.6 5.85-5.85 5.85h-57.19c-3.26 0-5.86-2.62-5.86-5.85zm336.58 85.87c9.31 0 16.87-7.56 16.87-16.85 0-2.51-.57-4.87-1.59-7l11.63-11.63c2.32-2.29 2.32-5.99 0-8.28-2.28-2.29-5.97-2.29-8.25 0l-11.63 11.63c-2.15-.99-4.51-1.57-7.03-1.57-9.27 0-16.83 7.56-16.83 16.85 0 9.3 7.56 16.85 16.83 16.85zm-48.59-22.71h-4.83c1.13-10.44 5.29-19.98 11.55-27.77l3.37 3.39c1.14 1.13 2.64 1.71 4.15 1.71 1.5 0 3.01-.58 4.14-1.72 2.28-2.28 2.28-5.98 0-8.28l-3.42-3.38c7.81-6.26 17.33-10.4 27.77-11.54v4.83c0 3.23 2.64 5.85 5.86 5.85 3.25 0 5.85-2.62 5.85-5.85v-4.83c10.45 1.13 20 5.28 27.81 11.54l-3.42 3.39c-2.27 2.29-2.27 5.99 0 8.28 1.14 1.14 2.64 1.71 4.15 1.71 1.5 0 3-.57 4.14-1.71l3.38-3.39c6.26 7.79 10.4 17.32 11.54 27.77h-4.83c-3.21 0-5.86 2.62-5.86 5.86s2.64 5.85 5.86 5.85h4.83c-1.13 10.45-5.28 19.99-11.54 27.77l-3.38-3.39c-2.32-2.28-6.02-2.29-8.3 0-2.27 2.29-2.27 5.99 0 8.28l3.42 3.39c-7.81 6.25-17.36 10.4-27.81 11.54v-4.83c0-3.23-2.6-5.86-5.85-5.86-3.21 0-5.86 2.63-5.86 5.86v4.83c-10.44-1.13-19.95-5.29-27.77-11.54l3.42-3.39c2.28-2.29 2.28-5.99 0-8.28-2.31-2.29-6.02-2.29-8.3 0l-3.37 3.39c-6.26-7.79-10.41-17.32-11.55-27.77h4.83c3.21 0 5.86-2.62 5.86-5.85s-2.62-5.86-5.84-5.86zm23.38 169.1 20.57 10.3v-87.6c-26.14-1.4-49.15-14.46-64.02-34.1l-78.65 45.4v164.76l49.75-28.71v-55.04c0-12.49 13.09-20.6 24.26-15l24.07 12.03c2.02-11.01 13.94-17.09 24.02-12.04zm52.89 48.6-58.13 29.06c-3.41 1.69-7.36-.71-7.36-4.54v-2.73l22.64-11.32c5.69-2.85 9.27-8.61 9.27-15 0-6.41-3.58-12.16-9.27-15.01l-22.64-11.32v-2.74c0-3.83 3.95-6.21 7.36-4.54l58.13 29.06c3.69 1.85 3.7 7.24 0 9.08zm-329.38-196.96 46.22 26.68.81 62.15c.04 2.06 1.13 3.96 2.92 5l38.62 22.28c3.89 2.25 8.79-.59 8.79-5.14l-.73-55.19 46.05 26.59v164.75l-142.67-82.37v-164.75zm148.53-92.52-142.68 82.38 46.18 26.67 142.68-82.38zm0 164.75-46.18-26.67 113.45-65.49c-.12 1.68-.29 3.34-.29 5.05 0 15.27 4.06 29.61 11.06 42.05zm147.11-196.99 13.82-.04v24.14c-2.56-.23-5.12-.39-7.76-.39-2.04 0-4.03.16-6.02.3zm68.41 39c2.6-2.59 7.2-2.58 9.76 0 2.68 2.69 2.68 7.06 0 9.75l-5.98 5.97c-2.92-3.54-6.22-6.8-9.67-9.81zm23.83 70.88c0-16.72-4.84-32.28-13.14-45.51l7.36-7.34c7.23-7.25 7.23-19.06 0-26.31-7.23-7.26-19.09-7.17-26.34-.01l-7.03 7.06c-8.3-5.44-17.6-9.45-27.56-11.75v-26.06c0-6.44-5.24-11.67-11.66-11.67h-13.86c-6.42 0-11.67 5.23-11.67 11.67v25.6c-23.45 4.93-43.37 19.48-55.57 39.26l-76.95-44.41c-1.79-1.04-4.02-1.04-5.86 0l-154.38 89.14c-1.79 1.05-2.92 2.97-2.92 5.06v178.27c0 2.09 1.13 4.02 2.92 5.07l154.38 89.13c1.78 1.04 4.08 1.05 5.86 0l55.24-31.9c3.08 4.87 8.41 7.87 14.19 7.87 2.56 0 5.13-.6 7.52-1.8l24.07-12.04c2.03 11.02 13.93 17.07 24.02 12.04l58.13-29.06c12.21-6.14 12.21-23.88 0-30.02l-25.85-12.91v-93.57c44.21-3.61 79.1-40.68 79.1-85.81z" fill-rule="evenodd" fill="#6c63ff" fill-opacity="1" data-original-color="#000000ff" stroke="none" stroke-opacity="1"/></g></svg>