<svg enable-background="new 0 0 64 64" height="300" viewBox="0 0 64 64" width="300" xmlns="http://www.w3.org/2000/svg" version="1.1" xmlns:xlink="http://www.w3.org/1999/xlink" xmlns:svgjs="http://svgjs.dev/svgjs"><g width="100%" height="100%" transform="matrix(1,0,0,1,0,0)"><g id="Layer_1"/><g id="Layer_2"/><g id="Layer_3"/><g id="Layer_4"/><g id="Layer_5"/><g id="Layer_6"/><g id="Layer_7"/><g id="Layer_8"/><g id="Layer_9"/><g id="Layer_10"/><g id="Layer_11"/><g id="Layer_12"><path d="m58.814 29.699c-.744 0-1.458-.417-1.803-1.132l-3.134-6.504-10.889 6.533c-.93.559-2.134.274-2.716-.641l-3.932-6.179-10.061 6.385c-.904.572-2.097.334-2.71-.542l-4.605-6.581-12.678 8.332c-.925.607-2.164.35-2.77-.573s-.35-2.164.573-2.77l14.3-9.398c.905-.593 2.116-.361 2.737.524l4.623 6.606 10.133-6.432c.932-.59 2.167-.316 2.759.615l3.959 6.221 11.098-6.658c.482-.29 1.062-.362 1.602-.201.539.161.984.542 1.229 1.048l4.085 8.479c.479.995.062 2.19-.934 2.67-.279.134-.575.198-.866.198z" fill="#6c63ff" fill-opacity="1" data-original-color="#000000ff" stroke="none" stroke-opacity="1"/><path d="m58.814 47.699c-.744 0-1.458-.417-1.803-1.132l-3.134-6.504-10.889 6.533c-.93.56-2.134.274-2.716-.641l-3.932-6.179-10.061 6.385c-.904.573-2.097.335-2.71-.542l-4.605-6.581-12.678 8.332c-.925.607-2.164.35-2.77-.573s-.35-2.164.573-2.77l14.3-9.398c.905-.594 2.116-.362 2.737.524l4.623 6.606 10.133-6.432c.932-.59 2.167-.316 2.759.615l3.959 6.221 11.098-6.658c.482-.29 1.062-.363 1.602-.201.539.161.984.542 1.229 1.048l4.085 8.479c.479.995.062 2.19-.934 2.67-.279.134-.575.198-.866.198z" fill="#6c63ff" fill-opacity="1" data-original-color="#000000ff" stroke="none" stroke-opacity="1"/></g><g id="Layer_13"/><g id="Layer_14"/><g id="Layer_15"/><g id="Layer_16"/><g id="Layer_17"/><g id="Layer_18"/><g id="Layer_19"/><g id="Layer_20"/><g id="Layer_21"/><g id="Layer_22"/><g id="Layer_23"/><g id="Layer_24"/></g></svg>