<svg id="Layer_1" viewBox="0 0 96 96" xmlns="http://www.w3.org/2000/svg" data-name="Layer 1"><circle cx="48" cy="48" fill="#c3e1f5" r="47"/><circle cx="48" cy="48" fill="#abd9e6" r="38"/><path d="m88 14a7 7 0 0 1 -14 0 7.33 7.33 0 0 1 .16-1.5 7 7 0 0 1 13.68 0 7.33 7.33 0 0 1 .16 1.5z" fill="#dc5d6b"/><ellipse cx="81" cy="12.5" fill="#e47980" rx="6.84" ry="5.5"/><path d="m22 14a7 7 0 0 1 -14 0 7.33 7.33 0 0 1 .16-1.5 7 7 0 0 1 13.68 0 7.33 7.33 0 0 1 .16 1.5z" fill="#dc5d6b"/><ellipse cx="15" cy="12.5" fill="#e47980" rx="6.84" ry="5.5"/><path d="m22 82a7 7 0 0 1 -14 0 7.33 7.33 0 0 1 .16-1.5 7 7 0 0 1 13.68 0 7.33 7.33 0 0 1 .16 1.5z" fill="#dc5d6b"/><ellipse cx="15" cy="80.5" fill="#e47980" rx="6.84" ry="5.5"/><path d="m88 82a7 7 0 0 1 -14 0 7.33 7.33 0 0 1 .16-1.5 7 7 0 0 1 13.68 0 7.33 7.33 0 0 1 .16 1.5z" fill="#dc5d6b"/><ellipse cx="81" cy="80.5" fill="#e47980" rx="6.84" ry="5.5"/><path d="m75 48a27 27 0 1 1 -27-27 26.74 26.74 0 0 1 27 27z" fill="#7190c4"/><path d="m75 48a26.74 26.74 0 0 1 -4.06 14.23 27 27 0 0 1 -41.88-33.46 27.28 27.28 0 0 1 2.7-2.34 27 27 0 0 1 43.24 20.92z" fill="#89a3ce"/><path d="m75 47.35a24.5 24.5 0 0 1 -43.24-20.92 27 27 0 0 1 43.24 20.92z" fill="#a5b9db"/><path d="m14 40h68v16h-68z" fill="#fac77d"/><path d="m17 40h65a0 0 0 0 1 0 0v13a0 0 0 0 1 0 0h-52a13 13 0 0 1 -13-13 0 0 0 0 1 0 0z" fill="#ffd69e"/><rect fill="#ffe5c3" height="7" rx="3.5" width="50" x="29" y="43"/><g fill="#39426a"><path d="m14 39a1 1 0 0 0 -1 1v16a1 1 0 0 0 1 1h7.49a28 28 0 0 0 53 0h7.51a1 1 0 0 0 1-1v-16a1 1 0 0 0 -1-1h-7.49a28 28 0 0 0 -53 0zm34 35c-3.42 0-6.63-4-8.69-10.25a50.72 50.72 0 0 1 17.38 0c-2.06 6.25-5.27 10.25-8.69 10.25zm10.67-9.87a35 35 0 0 1 7.49 2.51 25.78 25.78 0 0 1 -12.64 6.76 23 23 0 0 0 5.15-9.27zm-16.19 9.27a25.78 25.78 0 0 1 -12.64-6.76 35 35 0 0 1 7.49-2.51 23 23 0 0 0 5.15 9.27zm5.52-12.4a53.12 53.12 0 0 0 -9.27.81 45.17 45.17 0 0 1 -1-4.81h20.56a45.17 45.17 0 0 1 -1 4.81 53.12 53.12 0 0 0 -9.29-.81zm-12.31-4a47 47 0 0 0 1.07 5.19 36 36 0 0 0 -8.36 2.92 26 26 0 0 1 -4.79-8.11zm31.91 8.11a36 36 0 0 0 -8.36-2.92 47 47 0 0 0 1.07-5.19h12.08a26 26 0 0 1 -4.79 8.11zm13.4-10.11h-66v-14h66zm-33-33c3.42 0 6.63 4 8.69 10.25a51.09 51.09 0 0 1 -8.69.75 51.09 51.09 0 0 1 -8.69-.75c2.06-6.25 5.27-10.25 8.69-10.25zm-10.67 9.87a35 35 0 0 1 -7.49-2.51 25.78 25.78 0 0 1 12.64-6.76 23 23 0 0 0 -5.15 9.27zm16.19-9.27a25.78 25.78 0 0 1 12.64 6.76 35 35 0 0 1 -7.49 2.51 23 23 0 0 0 -5.15-9.27zm-5.52 12.4a53.12 53.12 0 0 0 9.27-.81 45.17 45.17 0 0 1 1 4.81h-20.56a45.17 45.17 0 0 1 1-4.81 53.12 53.12 0 0 0 9.29.81zm12.31 4a47 47 0 0 0 -1.07-5.19 36 36 0 0 0 8.36-2.92 26 26 0 0 1 4.79 8.11zm-31.91-8.11a36 36 0 0 0 8.36 2.92 47 47 0 0 0 -1.07 5.19h-12.08a26 26 0 0 1 4.79-8.11z"/><path d="m54.35 43.06a1 1 0 0 0 -1.29.59l-2.27 6.06-1.93-3.22a1 1 0 0 0 -1.72 0l-1.93 3.22-2.27-6.06a1 1 0 1 0 -1.88.7l3 8a1 1 0 0 0 1.8.16l2.14-3.57 2.14 3.57a1 1 0 0 0 .86.49h.09a1 1 0 0 0 .85-.65l3-8a1 1 0 0 0 -.59-1.29z"/><path d="m34.35 43.06a1 1 0 0 0 -1.29.59l-2.27 6.06-1.93-3.22a1 1 0 0 0 -1.72 0l-1.93 3.22-2.27-6.06a1 1 0 0 0 -1.88.7l3 8a1 1 0 0 0 1.8.16l2.14-3.57 2.14 3.57a1 1 0 0 0 .86.49h.09a1 1 0 0 0 .85-.65l3-8a1 1 0 0 0 -.59-1.29z"/><path d="m64.06 52.35a1 1 0 0 0 1.8.16l2.14-3.57 2.14 3.57a1 1 0 0 0 .86.49h.09a1 1 0 0 0 .85-.65l3-8a1 1 0 1 0 -1.88-.7l-2.27 6.06-1.93-3.22a1 1 0 0 0 -1.72 0l-1.93 3.22-2.27-6.06a1 1 0 1 0 -1.88.7z"/><path d="m92.86 63.07a1 1 0 0 0 .3-2 1 1 0 1 0 -.6 1.91 1 1 0 0 0 .3.09z"/><path d="m94.88 58.34a1 1 0 1 0 -1.19.76.86.86 0 0 0 .22 0 1 1 0 0 0 .97-.76z"/><path d="m89.27 25.47a1 1 0 0 0 -.42 1.35 1 1 0 0 0 .89.54 1.11 1.11 0 0 0 .46-.11 1 1 0 0 0 -.93-1.78z"/><path d="m94.48 40.88a1 1 0 0 0 .12 2h.13a1 1 0 1 0 -.25-2z"/><path d="m95.6 54.23a1 1 0 0 0 -2-.26 1 1 0 0 0 .86 1.12h.13a1 1 0 0 0 1.01-.86z"/><path d="m93.69 36.87a1 1 0 0 0 .21 2h.22a1 1 0 1 0 -.43-2z"/><path d="m87.16 22a1 1 0 0 0 -.31 1.39 1 1 0 0 0 .85.47.94.94 0 0 0 .53-.16 1 1 0 0 0 .31-1.38 1 1 0 0 0 -1.38-.32z"/><path d="m96 50.07a1 1 0 0 0 -1-1 1 1 0 0 0 -1 .93 1 1 0 0 0 1 1.05 1 1 0 0 0 1-.98z"/><path d="m91.09 66.84a1 1 0 0 0 .38.08 1 1 0 1 0 -.38-.08z"/><path d="m86.87 72.63a1 1 0 0 0 .3 1.38 1 1 0 0 0 .54.15 1 1 0 0 0 .84-.46 1 1 0 0 0 -.31-1.38 1 1 0 0 0 -1.37.31z"/><path d="m91.08 29.14a1 1 0 0 0 .38 1.92 1 1 0 0 0 .38-.07 1 1 0 0 0 .54-1.31 1 1 0 0 0 -1.3-.54z"/><path d="m89.75 70.62a1 1 0 1 0 -.89-1.46 1 1 0 0 0 .43 1.35 1 1 0 0 0 .46.11z"/><path d="m92.55 33a1 1 0 0 0 .3 1.95 1 1 0 0 0 .3 0 1 1 0 1 0 -.6-1.91z"/><path d="m94.91 44.94a1 1 0 0 0 0 2 1 1 0 0 0 1-1 1 1 0 0 0 -1-1z"/><path d="m1.4 55.13h.12a1 1 0 1 0 -.12 0z"/><path d="m4.54 66.94a1 1 0 0 0 .38-.08 1 1 0 1 0 -1.3-.54 1 1 0 0 0 .92.62z"/><path d="m6.26 70.64a.92.92 0 0 0 .46-.11 1 1 0 1 0 -.92-1.77 1 1 0 0 0 -.42 1.34 1 1 0 0 0 .88.54z"/><path d="m8.83 22a1 1 0 0 0 -1.39.31 1 1 0 0 0 .31 1.38 1 1 0 0 0 .54.16 1 1 0 0 0 .54-1.85z"/><path d="m3.15 63.1a1 1 0 0 0 .3-.05 1 1 0 0 0 -.6-1.91 1 1 0 0 0 .3 2z"/><path d="m2.1 59.15h.21a1 1 0 0 0 -.43-2 1 1 0 0 0 .22 2z"/><path d="m1.09 51.06a1 1 0 0 0 1-1 1 1 0 0 0 -1-1 1 1 0 0 0 .05 2z"/><path d="m4.91 29.16a1 1 0 0 0 -1.3.54 1 1 0 0 0 .54 1.3 1 1 0 0 0 .38.07 1 1 0 0 0 .38-1.92z"/><path d="m1.12 37.66a1 1 0 0 0 .77 1.19h.21a1 1 0 0 0 .21-2 1 1 0 0 0 -1.19.81z"/><path d="m5.37 25.92a1 1 0 0 0 .42 1.35 1.11 1.11 0 0 0 .46.11 1 1 0 0 0 .46-1.89 1 1 0 0 0 -1.34.43z"/><path d="m.4 41.77a1 1 0 0 0 .86 1.12h.13a1 1 0 1 0 -1-1.13z"/><path d="m2.19 33.63a1 1 0 0 0 .65 1.25 1 1 0 0 0 .3 0 1 1 0 1 0 -1-1.3z"/><path d="m0 45.93a1 1 0 0 0 1 1 1 1 0 1 0 -1-1z"/><path d="m7.77 72.34a1 1 0 0 0 .53 1.84 1 1 0 0 0 .54-.18 1 1 0 0 0 .31-1.39 1 1 0 0 0 -1.38-.27z"/><path d="m21.31 9.1a8 8 0 1 0 -6.31 12.9 7.92 7.92 0 0 0 4.9-1.69l4.39 4.4a1 1 0 0 0 1.42 0 1 1 0 0 0 0-1.42l-4.4-4.39a7.95 7.95 0 0 0 0-9.8zm-12.31 4.9a6 6 0 1 1 6 6 6 6 0 0 1 -6-6z"/><path d="m49.94 2a1 1 0 0 0 1-1 1 1 0 1 0 -2-.08 1 1 0 0 0 1 1z"/><path d="m53.82 2.36a1 1 0 0 0 .12-2 1 1 0 0 0 -.24 2z"/><path d="m68.26 6.69a1 1 0 0 0 .44.1 1 1 0 0 0 .9-.56 1 1 0 0 0 -.45-1.34 1 1 0 0 0 -.89 1.8z"/><path d="m65.13 5.22a1 1 0 0 0 .37-1.93 1 1 0 1 0 -.73 1.86.92.92 0 0 0 .36.07z"/><path d="m61.45 4a1 1 0 0 0 .28-2 1 1 0 0 0 -.57 1.92 1 1 0 0 0 .29.08z"/><path d="m46.08 2a1 1 0 0 0 1-1 1 1 0 1 0 -2 .08 1 1 0 0 0 1 1z"/><path d="m30.84 5.23a1 1 0 0 0 .37-.07 1 1 0 0 0 .56-1.3 1 1 0 0 0 -1.86.73 1 1 0 0 0 .93.64z"/><path d="m42.28 2.35a1 1 0 0 0 .86-1.11 1 1 0 0 0 -1.14-.87 1 1 0 0 0 .12 2z"/><path d="m27.28 6.8a1 1 0 0 0 .44-.1 1 1 0 1 0 -1.34-.46 1 1 0 0 0 .9.56z"/><path d="m38.31 3h.2a1 1 0 0 0 .78-1.19 1 1 0 0 0 -1.19-.81 1 1 0 0 0 .21 2z"/><path d="m34.53 4a.92.92 0 0 0 .28 0 1 1 0 1 0 -.28 0z"/><path d="m57.67 3a1 1 0 0 0 .2-2 1 1 0 1 0 -.41 2 .75.75 0 0 0 .21 0z"/><path d="m72.13 8.66a1 1 0 1 0 -.52-.15 1 1 0 0 0 .52.15z"/><path d="m23.86 8.67a1 1 0 0 0 .51-.15 1 1 0 1 0 -1.37-.34 1 1 0 0 0 .86.49z"/><path d="m37.33 93.8a1 1 0 0 0 .77 1.2h.21a1 1 0 0 0 1-.79 1 1 0 0 0 -.8-1.21 1 1 0 0 0 -1.18.8z"/><path d="m23 87.82a1 1 0 0 0 .34 1.37 1 1 0 0 0 .51.14 1 1 0 0 0 .86-.48 1 1 0 1 0 -1.71-1z"/><path d="m61.16 92.09a1 1 0 0 0 .29 2 .9.9 0 0 0 .28 0 1 1 0 1 0 -.57-1.92z"/><path d="m64.77 90.85a1 1 0 0 0 .37 1.93.92.92 0 0 0 .36-.07 1 1 0 0 0 -.73-1.86z"/><path d="m57.46 93a1 1 0 0 0 .21 2h.2a1 1 0 1 0 -.41-2z"/><path d="m68.26 89.31a1 1 0 0 0 .44 1.9 1 1 0 0 0 .45-.1 1 1 0 0 0 .45-1.34 1 1 0 0 0 -1.34-.46z"/><path d="m52.83 94.77a1 1 0 0 0 1 .87h.12a1 1 0 1 0 -1.11-.87z"/><path d="m27.72 89.3a1 1 0 0 0 -.89 1.8 1 1 0 0 0 .45.1 1 1 0 0 0 .9-.56 1 1 0 0 0 -.46-1.34z"/><path d="m29.91 91.41a1 1 0 0 0 .57 1.29.92.92 0 0 0 .36.07 1 1 0 1 0 -.93-1.36z"/><path d="m33.57 92.76a1 1 0 0 0 .67 1.24 1 1 0 0 0 .29 0 1 1 0 1 0 -1-1.28z"/><path d="m48.94 95a1 1 0 0 0 1 1 1 1 0 0 0 -.09-2 1 1 0 0 0 -.91 1z"/><path d="m45 94.92a1 1 0 0 0 1 1 1 1 0 0 0 0-2 1 1 0 0 0 -1 1z"/><path d="m41.16 94.52a1 1 0 0 0 .84 1.11h.12a1 1 0 1 0 -1-1.12z"/><path d="m71.61 87.49a1 1 0 0 0 -.34 1.37 1 1 0 0 0 .86.48 1 1 0 0 0 .51-.14 1 1 0 0 0 -1-1.71z"/><path d="m74.69 86.9a8 8 0 1 0 11.31-11.12l-.1-.08a7.95 7.95 0 0 0 -9.8 0l-4.39-4.4a1 1 0 0 0 -1.42 1.42l4.4 4.39a7.93 7.93 0 0 0 0 9.79zm12.31-4.9a6 6 0 1 1 -6-6 6 6 0 0 1 6 6z"/><path d="m70.29 24.71a1 1 0 0 0 1.42 0l4.39-4.4a7.95 7.95 0 0 0 9.8 0l.09-.07a8 8 0 1 0 -11.3-11.14 8 8 0 0 0 0 9.79l-4.4 4.39a1 1 0 0 0 0 1.43zm10.71-16.71a6 6 0 1 1 -6 6 6 6 0 0 1 6-6z"/><path d="m25.71 71.29a1 1 0 0 0 -1.42 0l-4.39 4.4a7.92 7.92 0 0 0 -4.9-1.69 8 8 0 1 0 6.31 12.9 1.58 1.58 0 0 0 .12-.15 8 8 0 0 0 -.14-9.62l4.4-4.39a1 1 0 0 0 .02-1.45zm-10.71 16.71a6 6 0 1 1 6-6 6 6 0 0 1 -6 6z"/></g><path d="m85 15a1 1 0 0 1 -1-1 3 3 0 0 0 -3-3 1 1 0 0 1 0-2 5 5 0 0 1 5 5 1 1 0 0 1 -1 1z" fill="#f4929c"/><path d="m19 15a1 1 0 0 1 -1-1 3 3 0 0 0 -3-3 1 1 0 0 1 0-2 5 5 0 0 1 5 5 1 1 0 0 1 -1 1z" fill="#f4929c"/><path d="m85 83a1 1 0 0 1 -1-1 3 3 0 0 0 -3-3 1 1 0 0 1 0-2 5 5 0 0 1 5 5 1 1 0 0 1 -1 1z" fill="#f4929c"/><path d="m19 83a1 1 0 0 1 -1-1 3 3 0 0 0 -3-3 1 1 0 0 1 0-2 5 5 0 0 1 5 5 1 1 0 0 1 -1 1z" fill="#f4929c"/></svg>