<svg id="Layer_1" enable-background="new 0 0 128 128" height="300" viewBox="0 0 128 128" width="300" xmlns="http://www.w3.org/2000/svg" version="1.1" xmlns:xlink="http://www.w3.org/1999/xlink" xmlns:svgjs="http://svgjs.dev/svgjs"><g width="100%" height="100%" transform="matrix(1,0,0,1,0,0)"><g><path d="m126.591 97.459-49.882-87.888c-.01-.016-.021-.029-.03-.045-.013-.019-.025-.038-.038-.057-.031-.043-.064-.083-.1-.122-.01-.01-.017-.022-.027-.033-.004-.004-.01-.007-.013-.011-.058-.056-.122-.102-.188-.145-.242-.156-.534-.227-.83-.18l-21.208 3.322c-.349.055-.657.261-.839.564l-51.983 86.15c-.03.05-.055.102-.077.154-.001.002-.002.005-.004.008-.027.066-.047.135-.063.205-.004.021-.007.041-.01.063-.008.049-.014.098-.015.147 0 .015-.004.028-.004.043 0 .013.003.024.004.036.001.051.007.102.016.151.003.019.003.038.007.058.015.068.035.134.061.198.007.019.017.036.025.054.021.047.045.092.072.135.014.022.029.045.045.066.002.004.005.006.008.01.008.013.016.025.024.037l13.316 16.665c.225.282.563.727.924.729l101.706 1.262h.002.01c.012 0 .025-.281.038-.281.057-.002.113-.147.169-.157.023-.004.047-.08.07-.086.048-.012.096-.061.142-.077.021-.008.04-.032.06-.041.064-.027.127-.068.186-.107 0 0 .001-.006.002-.006.058-.039.109-.086.16-.135.002 0 .002-.003.004-.004.006-.005.012-.008.016-.014.008-.008.014-.017.021-.025.001-.001.003-.002.003-.003.037-.04.072-.081.104-.126.01-.015-.077-.029-.066-.045.033-.051-.012-.104-.012-.16v-.001c.398-.009.107-.016.111-.024l8.098-19.23c.142-.343.167-.732-.015-1.054zm-9.835 18.495-.018.044-.032.076-100.332-1.041-12.23-15.381 84.458.965c.123 0 .248-.03.369-.078.041-.016.082-.027.121-.049.47-.264.637-.859.373-1.33l-.012-.02-22.188-39.02.016-.024-.094-.025 7.938-13.802 41.508 69.699.066-.022.031-.007-40.634-72.467c-.088-.156-.213-.288-.379-.385-.5-.294-1.143-.127-1.436.374l-.01.018-22.529 38.556h-.005l-.093.188-16.426.111 39.704-70.842-.049.007-42.44 71.395c-.052.089-.091.161-.117.241-.02.063-.032.477-.033.561-.004.592.472 1.34 1.063 1.34h.021l44.92-.186.249.186h.03l8.27 13.791-82.836.597 51.196-84.844 19.662-3.079.015-.002.05-.008.113-.018 49.182 86.655zm-39.57-33.919h-22.681l11.405-19.757z" fill="#6c63ff" fill-opacity="1" data-original-color="#000000ff" stroke="none" stroke-opacity="1"/><path d="m51.737 82.24 13.056-22.615.003-.007.055-.096z" fill="#6c63ff" fill-opacity="1" data-original-color="#000000ff" stroke="none" stroke-opacity="1"/></g></g></svg>