<svg clip-rule="evenodd" fill-rule="evenodd" height="512" image-rendering="optimizeQuality" shape-rendering="geometricPrecision" text-rendering="geometricPrecision" viewBox="0 0 173.397 173.397" width="512" xmlns="http://www.w3.org/2000/svg"><g id="Layer_x0020_1"><path d="m53.3153 116.517c2.2871 2.4006 8.3374-.3832 11.4096-2.3109-1.3061-1.1784-2.6052-2.4355-3.8968-3.771-.6253-.6476-.6269-1.6745 0-2.3222 1.2921-1.3361 2.5917-2.5937 3.8981-3.7724-3.0717-1.9266-9.1235-4.7132-11.4109-2.3095-.4069.4313-.564.8913-.5013 1.49.154 1.5074 1.6954 3.4118 3.0948 4.3762.4526.3131.7206.8284.7206 1.3751.0014.55-.268 1.0653-.7206 1.3751-1.3994.9675-2.9418 2.8687-3.0948 4.3761-.0621.602.094 1.0619.5013 1.4935z" fill="#ffe082"/><path d="m68.5143 113.091c2.9663 2.526 5.9477 4.6119 8.9484 6.2582.0887.0387.1728.0847.2519.1371 4.4985 2.4302 9.0408 3.8731 13.6418 4.3301-3.6346-9.6594-3.6356-19.42-.0032-29.0793-9.1253.9245-18.1841 5.8025-26.977 14.5353 1.3555 1.3477 2.7137 2.6027 4.0751 3.7649.0213.0173.0423.0352.063.0537z" fill="#78bef8"/><path d="m95.0089 94.5772c-4.0331 9.7582-4.0332 19.6364.0018 29.3947 2.0799-.0283 4.1723-.2552 6.2786-.6806.0698-.0191.1407-.0336.2123-.0435 5.9456-1.2379 12.0024-4.0558 18.2003-8.4506l-4.3413-4.3417c-.6502-.6544-.651-1.7125 0-2.3635l4.3427-4.3417c-8.4433-5.9796-16.7353-9.0649-24.6944-9.1731zm1.3224 14.695c.001-3.9062 3.1786-7.0847 7.0846-7.0847 3.9063-.0003 7.0848 3.1786 7.0848 7.0847.0002 3.9057-3.1785 7.0847-7.084 7.0845-3.9056 0-7.0854-3.1784-7.0854-7.0845z" fill="#78bef8"/><path d="m78.0141 123.365c-1.4799 8.3751-.8636 13.5955 1.7526 14.4473 5.9755 1.9416 12.5111-4.0555 18.0093-10.6469-1.0841.0977-2.1645.1466-3.2406.1466-.21 0-.42-.0019-.6298-.0066-.6409 0-1.2541-.369-1.529-.9957-.367-.8305-.7071-1.6619-1.0202-2.4941-4.601-.457-9.1433-1.8999-13.6418-4.3301.5512.3653.8548 1.0414.7118 1.7275-.1519.7386-.2894 1.4562-.4123 2.152z" fill="#ffe082"/><path d="m99.6735 109.272c.0004 2.0642 1.6779 3.7425 3.7424 3.7425 2.0655-.0001 3.7425-1.678 3.7425-3.7425.0008-2.0612-1.678-3.7425-3.7417-3.7426-2.0649 0-3.7432 1.6816-3.7432 3.7426z" fill="#ffe082"/><path d="m102.684 92.1465c6.7602 1.5079 13.6531 4.8751 20.5831 10.0654.3904.2887.63.7346.665 1.2185.0357.4836-.1429.9574-.4842 1.302l-4.5419 4.5396 4.5431 4.5431c.3401.3412.5175.8184.483 1.3023-.035.4802-.2752.9261-.665 1.2186-6.9295 5.1883-13.818 8.5516-20.581 10.0594-6.0303 7.7171-13.0329 15.1529-20.4815 15.1527-1.1452 0-2.3053-.1775-3.4716-.5569-4.6839-1.5246-5.9663-8.0031-3.8143-19.2658-2.5455-1.4691-5.0717-3.2262-7.5742-5.2689-2.2945 1.5645-7.191 4.3287-11.4482 4.3286-1.8849 0-3.6465-.543-5.0006-1.9669-1.0828-1.135-1.5703-2.5658-1.4065-4.1359.2061-1.9951 1.4377-3.9515 2.8895-5.4101-1.4503-1.4588-2.6842-3.4118-2.8895-5.4066-.1634-1.5702.3237-3.001 1.4065-4.1394 4.42-4.6423 13.1418.1063 16.4497 2.3642 2.5022-2.0423 5.028-3.7987 7.5735-5.2673-2.1519-11.2666-.8703-17.7455 3.8141-19.2699 8.7352-2.8397 16.991 5.691 23.951 14.5933zm-65.2912 54.5194 98.6126-.0001.0004-74.7874h-98.6146l.0016 74.7875z" fill="#bbdefb"/><path d="m97.7715 91.3763c-5.4978-6.5901-12.0345-12.5858-18.0048-10.6446-2.6155.8519-3.2325 6.0767-1.7519 14.4517 5.2209-2.5195 10.5171-3.8397 15.8551-3.9443.2369-.0051.4788.0403.7103.1422.8434.3723 1.2255 1.3577.8528 2.2038-.146.3306-.2874.6613-.4241.9921 7.9591.1082 16.2511 3.1935 24.6944 9.1731l-4.3427 4.3417c-.651.651-.6502 1.7091 0 2.3635l4.3413 4.3417c-6.1979 4.3948-12.2547 7.2127-18.2003 8.4506.4303-.0596.8833.0482 1.2529.3364.7324.5637.8635 1.6154.2959 2.343-.1211.1561-.2426.3122-.3644.4682 6.763-1.5078 13.6515-4.8711 20.581-10.0594.3898-.2925.63-.7384.665-1.2186.0345-.4839-.1429-.9611-.483-1.3023l-4.5431-4.5431 4.5419-4.5396c.3413-.3446.5199-.8184.4842-1.302-.035-.4839-.2746-.9298-.665-1.2185-6.93-5.1903-13.8229-8.5575-20.5831-10.0654.1226.1568.2447.3137.3665.4706.5684.7308.4354 1.779-.2959 2.3466-.7275.5639-1.7791.4316-2.343-.296-.8466-1.0912-1.729-2.1995-2.64-3.2914z" fill="#ffe082"/><path d="m139.347 71.8784.002 74.7876h6.206l.001-74.7876z" fill="#ffcc80"/><g fill="#6b809b"><path d="m137.676 68.5364h.0011c.9231.0003 1.67.7489 1.67 1.671v1.671h6.2083v-1.6711c0-.9228.7441-1.6709 1.6668-1.6709zm-64.9203-6.897c-.1879 0-.3802-.031-.5647-.0971-.8702-.3134-1.323-1.2707-1.0096-2.1377.1292-.3603.2562-.7293.3808-1.1071l-22.7346.0001c-.899 1.0154-1.8403 1.9799-2.8238 2.893-.3189.2985-.7259.4485-1.1316.4488zm-37.0358 6.897h101.956c-.9226 0-1.6706.7481-1.6706 1.6709v1.6711l-.0004 74.7874h3.3435l-.0014-74.7874h6.2083l-.0008 74.7874h3.3393l-.0008-74.7874v-1.671c0-.9225-.7449-1.6713-1.6709-1.671l7.52-.0003v-6.8967h-26.2122c-.0007 0-.0015 0-.0022 0h-27.8808c-.0018 0-.0035 0-.0053 0h-27.8845c.6846-.0003 1.3258-.4251 1.5715-1.1068.2559-.7134.503-1.4585.7415-2.2351 2.4874-8.101 4.0269-19.6325 4.5807-34.3476h-3.3465-14.0815-3.3656c-1.7494 15.1264-6.6721 26.6721-14.655 34.3477-.156.15-.3132.2985-.4716.4456-.6754.6301-.7127 1.6848-.0872 2.3604.3308.3551.7766.5358 1.2263.5358h-26.2144v6.8967l7.5151.0003h.0011c.9222.0003 1.67.7489 1.67 1.671v1.671h6.2075v-1.6711c0-.9228.7482-1.6709 1.6708-1.6709z"/><path d="m129.191 58.2974h21.3631c-11.8952-8.2047-19.2688-19.7305-21.961-34.3475h-14.0573c1.7509 15.1263 6.6756 26.6721 14.6552 34.3475z"/><path d="m124.565 58.2974c-7.2621-8.2045-11.7588-19.7335-13.3919-34.3475h-14.0852c.5715 14.9941 2.1649 26.5331 4.7426 34.3476z"/><path d="m98.3264 58.2975c-2.4864-8.101-4.0263-19.6324-4.5807-34.3476h-14.0945c-.017.4506-.0349.8982-.0537 1.3428-.3687 8.7179-1.0923 16.2855-2.1627 22.6492-.0122.0722-.0243.1442-.0366.2162-.6379 3.7527-1.4094 7.1552-2.3265 10.1394z"/><path d="m51.3507 49.0128c3.7742-6.6321 6.2645-14.8261 7.4408-24.505.0225-.1854.0445-.3714.0661-.5579h-14.0539c-2.6917 14.617-10.0675 26.1431-21.9639 34.3477h21.3628c2.728-2.6289 5.0921-5.6951 7.093-9.1882.0184-.0321.0368-.0643.0551-.0966z"/></g><path d="m60.7711 20.6078h17.2016c.0378-.0013.0758-.0013.1141 0l.0055.0002h17.2121c.0018-.0001.0037-.0001.0055-.0002.039-.0014.0777-.0013.1161 0h17.2075c.0291-.0007.058-.0007.0868 0h15.6089v-7.1054h-83.26v7.1054h15.5825c.0395-.0014.0793-.0014.1194 0z" fill="#ffcc80"/><path d="m34.0492 146.666.0002-74.7876h-6.2075l.0004 74.7876z" fill="#ffcc80"/><path d="m137.677 150.008h-101.9557-9.5501-6.549v9.887h134.1488v-9.887h-6.548z" fill="#ffcc80"/><path d="m72.756 61.6394h-27.8835c.4057-.0003.8127-.1503 1.1316-.4488.9835-.9131 1.9248-1.8776 2.8238-2.893l22.7346-.0001c-.1246.3778-.2516.7468-.3808 1.1071-.3934 1.0927.4363 2.2348 1.5743 2.2348zm85.3284-1.6708c-.001-.4543-.1873-.8985-.5274-1.2186-.1001-.0941-.2119-.1759-.3326-.2436-14.3039-7.971-22.9006-20.1967-25.5522-36.3384v.111c0 .9224-.7498 1.6711-1.6715 1.6709h-1.408c2.6922 14.617 10.0658 26.1428 21.961 34.3475 1.6 1.1036 3.2818 2.1471 5.045 3.13.2574.1427.5364.212.8124.212.5871.0003 1.1546-.3098 1.4609-.8596.1436-.2571.2117-.536.2124-.8112zm-10.8619 8.5678c.926-.0003 1.6709.7485 1.6709 1.671v1.671l.0008 74.7874h6.5486c.9227 0 1.6701.7486 1.6701 1.6711l.0016 13.2291c0 .9228-.75 1.6713-1.6717 1.6712h-137.491c-.9227 0-1.6722-.7484-1.6722-1.6709l.0006-13.2297c0-.9223.7479-1.6707 1.6704-1.6707h6.5485l.0012-74.7875h-7.5166c-.9229 0-1.6718-.7484-1.6718-1.671v-10.1906c-.0005-.0161-.0007-.0321-.0007-.0482 0-.5854.3099-1.1543.8569-1.4622 14.3129-7.9755 22.9107-20.2101 25.5568-36.3657v.1383c0 .9227.7494 1.6709 1.6721 1.6709h1.4062 14.0539 3.3656 14.0815 3.3465 14.0945 3.3425 14.0852 3.362 14.0573c2.6922 14.617 10.0658 26.1428 21.961 34.3475h-21.3631c.156.1501.3132.2987.4716.4458.6802.63.7173 1.685.0871 2.3604-.3262.3543-.7714.5355-1.219.5358h26.2122v6.8967l-7.52.0003zm-103.536-7.3881c-.0146-.0146-.029-.0295-.0432-.0447.0145.0148.0287.0299.0432.0447zm-17.5151 7.3881h-.0011zm9.5483 0h101.956 9.5462c-.9227 0-1.6668.7481-1.6668 1.6709v1.6711l-.0008 74.7874h-6.2061-3.3435l-98.6126.0001h-3.3435-6.2069l-.0004-74.7875h6.2075v-1.6711c0-.9228.7482-1.6709 1.6708-1.6709zm.0011 81.4715h101.956 9.5457 6.5479v9.8869h-134.149v-9.8869h6.549 9.5501zm41.7135-102.066c1.0642-6.3342 1.7512-13.6555 2.1182-21.6407.0154-.3344.0302-.6706.0445-1.0085-.3687 8.7179-1.0923 16.2855-2.1627 22.6492zm23.2125 13.6975c.1854-.0003.3725-.0319.558-.0971.8669-.3134 1.3199-1.2709 1.0062-2.1377-.1292-.3603-.2561-.7294-.3807-1.1071l22.7345-.0001c.8988 1.0155 1.84 1.98 2.8234 2.8932.3239.2994.7321.4488 1.1394.4488zm-41.9909-36.0696c-1.2231 9.1994-3.6561 17.036-7.3057 23.443.0186-.0326.0371-.0653.0556-.098 3.6047-6.3702 6.0302-14.1745 7.2501-23.345zm-15.4552 34.4944c.0001.0006.0001.0012.0001.0018.0219.3736.1687.7419.4425 1.0376-.2584-.2856-.416-.6559-.4426-1.0394zm8.0944-10.9548c-2.0012 3.4971-4.3611 6.5579-7.075 9.1708-.0062.006-.0124.0119-.018.0174 2.728-2.6289 5.0921-5.6951 7.093-9.1882zm23.7761 9.1881h23.2547c.2384.7766.4855 1.5217.7412 2.2351.2438.6824.8884 1.1068 1.5744 1.1068h-27.8845c.6846-.0003 1.3258-.4251 1.5715-1.1068.2559-.7134.503-1.4585.7415-2.2351z" fill="#ffcc80"/><g id="_296908560"><path id="_394173648" d="m18.6557 68.5361h136.087v-6.8967h-136.087zm137.758 3.3423h-139.43c-.9229 0-1.6718-.7484-1.6718-1.671v-10.2388c0-.9228.7485-1.671 1.671-1.671l139.431-.0002c.9227 0 1.6704.7487 1.6704 1.6712l.0012 10.2387c0 .9223-.7497 1.6711-1.6716 1.6711z"/><path id="_394170144" d="m16.9842 61.6394c-.5844 0-1.1566-.3095-1.4596-.8596-.4518-.8042-.1601-1.8207.644-2.2734 14.3512-7.9968 22.9566-20.2756 25.5779-36.4954.147-.9124 1.0095-1.5283 1.9147-1.3821.9128.1462 1.532 1.0027 1.3855 1.9147-2.7912 17.2781-11.9618 30.3613-27.2521 38.8838-.2542.1427-.5363.2123-.8104.212z"/><path id="_394170288" d="m44.8701 61.6394c-.4497 0-.8955-.1807-1.2263-.5358-.6255-.6756-.5882-1.7303.0872-2.3604 8.5853-7.9726 13.7374-20.2966 15.3215-36.6278.0912-.9193.9087-1.591 1.8241-1.5005.9194.087 1.591.9053 1.504 1.8243-1.6625 17.1667-7.175 30.2081-16.3765 38.7514-.3195.2991-.7275.4491-1.134.4488z"/><path id="_394169784" d="m72.756 61.6394c-.1879 0-.3802-.031-.5647-.0971-.8702-.3134-1.323-1.2707-1.0096-2.1377 2.9045-8.0979 4.6475-20.6063 5.1838-37.1813.0315-.9226.8181-1.6501 1.7268-1.6153.924.0276 1.6431.8007 1.6154 1.7232-.5457 16.9231-2.357 29.7764-5.3787 38.2014-.2459.6822-.8878 1.1071-1.573 1.1068z"/><path id="_394170000" d="m100.642 61.6394c-.686 0-1.3306-.4244-1.5744-1.1068-3.0203-8.425-4.832-21.2782-5.3785-38.2014-.031-.9229.6925-1.6954 1.6153-1.7232.9197-.035 1.6954.6928 1.723 1.6153.5363 16.5747 2.2804 29.0836 5.1841 37.1813.3137.8668-.1393 1.8243-1.0062 2.1377-.1873.0658-.3762.0974-.5633.0971z"/><path id="_394170216" d="m128.528 61.6394c-.4073 0-.8155-.1494-1.1394-.4488-9.2004-8.5436-14.7088-21.5846-16.3729-38.7514-.0904-.9191.5815-1.7372 1.5004-1.8243.9158-.0873 1.7373.5815 1.8241 1.5005 1.5857 16.3312 6.7402 28.6555 15.3219 36.6278.6802.63.7173 1.685.0871 2.3604-.3267.3549-.7729.5361-1.2212.5358z"/><path id="_394168992" d="m156.411 61.6394c-.276 0-.555-.0693-.8124-.212-15.2895-8.5228-24.457-21.6056-27.249-38.8838-.146-.9123.4701-1.7685 1.382-1.9147.913-.1464 1.7686.47 1.9149 1.3821 2.6215 16.2194 11.2276 28.4986 25.5778 36.4954.8079.4525 1.0966 1.4692.6476 2.2734-.3063.5498-.8738.8599-1.4609.8596z"/><path id="_394169304" d="m45.0692 20.6078h83.26v-7.1054h-83.26zm84.9315 3.3421h-86.6032c-.9227 0-1.6721-.7482-1.6721-1.6709l.0003-10.4478c0-.9228.7485-1.6709 1.671-1.6709l86.604-.0003c.9227 0 1.6704.7488 1.6704 1.6714l.0011 10.4476c0 .9224-.7498 1.6711-1.6715 1.6709z"/><path id="_394169448" d="m26.1708 150.008c-.9211 0-1.6712-.7484-1.6712-1.671l.0012-78.1296c0-.9228.7475-1.6709 1.67-1.6709.9227-.0003 1.6711.7485 1.6711 1.671l.0004 78.1292c0 .9227-.7488 1.6714-1.6715 1.6713zm9.5501 0c-.9227 0-1.6717-.7484-1.6717-1.671l.0002-78.1296c0-.9228.7482-1.6709 1.6708-1.6709.9237-.0003 1.6709.7485 1.6709 1.671l.0016 78.1292c0 .9227-.75 1.6714-1.6718 1.6713z"/><path id="_296911248" d="m137.677 150.008c-.9225 0-1.6717-.7484-1.6717-1.671l.0004-78.1296c0-.9228.748-1.6709 1.6706-1.6709.9236-.0003 1.6711.7485 1.6711 1.671l.0014 78.1292c0 .9227-.7498 1.6714-1.6718 1.6713zm9.5457 0c-.9229 0-1.6678-.7484-1.6678-1.671l.0008-78.1296c0-.9228.7441-1.6709 1.6668-1.6709.926-.0003 1.6709.7485 1.6709 1.671l.0008 78.1292c0 .9227-.7459 1.6714-1.6715 1.6713z"/><path id="_296915280" d="m19.6222 159.895h134.149v-9.8869h-134.149zm135.821 3.3424h-137.491c-.9227 0-1.6722-.7484-1.6722-1.6709l.0006-13.2297c0-.9223.7479-1.6707 1.6704-1.6707l137.492-.0001c.9227 0 1.6701.7486 1.6701 1.6711l.0016 13.2291c0 .9228-.75 1.6713-1.6717 1.6712z"/><path id="_296909664" d="m64.3762 109.272c17.6652 17.5638 35.7951 19.3741 55.3257 5.5252l-4.3413-4.3417c-.6502-.6544-.651-1.7125 0-2.3635l4.3427-4.3417c-8.8233-6.2488-17.4815-9.3368-25.7671-9.1696-9.9976.1949-19.938 5.135-29.56 14.6913zm30.1592 18.0404c-.838 0-1.6749-.031-2.507-.0902-10.6622-.7589-21.1601-6.4057-31.2003-16.7872-.6253-.6476-.6269-1.6745 0-2.3222 10.6151-10.9768 21.7344-16.6515 33.0418-16.8743 9.5326-.188 19.4264 3.5058 29.3971 10.9734.3904.2887.63.7346.665 1.2185.0357.4836-.1429.9574-.4842 1.302l-4.5419 4.5396 4.5431 4.5431c.3401.3412.5175.8184.483 1.3023-.035.4802-.2752.9261-.665 1.2186-9.7363 7.2898-19.3916 10.9767-28.7316 10.9764z"/><path id="_296908488" d="m55.8962 120.785c-1.8849 0-3.6465-.543-5.0006-1.9669-1.0828-1.135-1.5703-2.5658-1.4065-4.1359.2061-1.9951 1.4377-3.9515 2.8895-5.4101-1.4503-1.4588-2.6842-3.4118-2.8895-5.4066-.1634-1.5702.3237-3.001 1.4065-4.1394 5.1711-5.4312 16.2302 1.9913 17.6194 3.2412.6895.6161.7449 1.6711.1289 2.3604-.6128.6856-1.6713.745-2.3605.1253-1.6706-1.4971-10.1587-6.3744-12.9681-3.4222-.4069.4313-.564.8913-.5013 1.49.154 1.5074 1.6954 3.4118 3.0948 4.3762.4526.3131.7206.8284.7206 1.3751.0014.55-.268 1.0653-.7206 1.3751-1.3994.9675-2.9418 2.8687-3.0948 4.3761-.0621.602.094 1.0619.5013 1.4935 2.8094 2.9488 11.2971-1.9251 12.9681-3.4256.6904-.6164 1.7443-.557 2.3605.1288.617.6855.5606 1.7441-.1289 2.3604-1.0259.9191-7.3179 5.2047-12.6188 5.2046z"/><path id="_296908872" d="m76.7902 99.3395c-.7757 0-1.4728-.5429-1.6364-1.3331-2.4713-11.9969-1.2669-18.8762 3.5791-20.4532 8.889-2.8897 17.2816 5.995 24.3175 15.0639.5684.7308.4354 1.779-.2959 2.3466-.7275.5639-1.7791.4316-2.343-.296-5.956-7.6767-13.6853-16.1989-20.6448-13.936-2.8324.9225-3.3211 6.9732-1.3403 16.5993.1889.9048-.3967 1.786-1.2987 1.9739-.1135.024-.2262.0349-.3375.0346z"/><path id="_296908512" d="m82.2045 141.548c-1.1452 0-2.3053-.1775-3.4716-.5569-4.8456-1.5773-6.0508-8.4564-3.5791-20.4497.1857-.9055 1.0692-1.4866 1.9739-1.2986.9032.1844 1.4866 1.0688 1.2987 1.9705-1.9808 9.6295-1.4933 15.6767 1.3403 16.5993 6.9637 2.2627 14.688-6.2561 20.6448-13.9326.5643-.7313 1.6153-.8634 2.343-.2959.7324.5637.8635 1.6154.2959 2.343-6.1118 7.8817-13.2468 15.6211-20.8459 15.6209z"/><path id="_296908704" d="m93.9056 127.306c-.6409 0-1.2541-.369-1.529-.9957-4.9959-11.3043-4.9959-22.7718 0-34.0758.3728-.8426 1.3577-1.2255 2.2036-.853.8434.3723 1.2255 1.3577.8528 2.2038-4.5979 10.4093-4.5987 20.9648 0 31.3743.3729.846-.0102 1.8312-.8528 2.2037-.2187.0973-.449.1427-.6746.1427z"/><path id="_296908944" d="m103.417 105.53c-2.0649 0-3.7432 1.6816-3.7432 3.7426.0004 2.0642 1.6779 3.7425 3.7424 3.7425 2.0655-.0001 3.7425-1.678 3.7425-3.7425.0008-2.0612-1.678-3.7425-3.7417-3.7426zm0 10.8271c-3.9056 0-7.0854-3.1784-7.0854-7.0845.001-3.9062 3.1786-7.0847 7.0846-7.0847 3.9063-.0003 7.0848 3.1786 7.0848 7.0847.0002 3.9057-3.1785 7.0847-7.084 7.0845z"/></g><path d="m44.2026 58.2976c.0006-.0006.0013-.0012.0019-.0019-.0006.0006-.0013.0013-.0019.0019zm7.2037-9.3828c-.0072.0127-.0144.0255-.0215.0382.0072-.0127.0144-.0254.0215-.0382zm7.0285-21.7821c.0321-.2133.0636-.4273.0944-.6421.0275-.1922.0545-.3849.081-.5782.0156-.114.031-.2282.0462-.3426-.07.5254-.1438 1.0464-.2216 1.5629zm-3.0127 12.7099c1.3149-3.8745 2.3203-8.1141 3.0127-12.7099.0323-.2133.0637-.4273.0944-.6421.0276-.1921.0546-.3849.081-.5782.0156-.114.031-.2282.0462-.3426.0467-.352.0918-.706.1351-1.062.0225-.1854.0445-.3714.0661-.5579h-14.0539c-2.6917 14.617-10.0675 26.1431-21.9639 34.3477h21.3628c.0006-.0006.0013-.0012.0019-.0019.0053-.0052.0106-.0104.0161-.0155.0119-.012.0239-.0238.0359-.0357 1.0567-1.0407 2.0268-2.0856 2.9374-3.1802.0107-.0129.0214-.0259.0322-.0387 1.4591-1.7717 2.7887-3.6977 3.9889-5.7759.0269-.0466.0538-.0934.0806-.1403.0184-.0321.0368-.0643.0551-.0966.0071-.0124.0141-.0248.0212-.0372.0043-.0076.0085-.0151.0129-.0226.0071-.0128.0143-.0255.0215-.0382.0035-.0062.007-.0124.0105-.0186 1.5422-2.7283 2.8683-5.7193 3.9761-8.9678.0047-.0138.0094-.0276.0141-.0414.0051-.0148.0101-.0296.0151-.0444z" fill="#e57373"/><path d="m77.468 47.7433c-.011.0663-.0221.1325-.0332.1986.0111-.0661.0222-.1323.0332-.1986zm20.8584 10.5542c-2.4864-8.101-4.0263-19.6324-4.5807-34.3476h-14.0945c-.017.4506-.0349.8982-.0537 1.3428-.0121.2869-.0247.573-.0376.8583-.0023.0501-.0046.1002-.0069.1502-.3642 7.9316-1.028 14.8896-1.9853 20.8321-.0327.2046-.066.4079-.0997.61-.0111.0664-.0221.1325-.0332.1986-.0122.0722-.0244.1443-.0366.2162-.6504 3.8219-1.4269 7.2056-2.3277 10.1394h.0012z" fill="#e57373"/><path d="m141.732 50.74c-6.7911-7.2531-11.191-16.2122-13.1393-26.7901h-14.0573c1.7509 15.1263 6.6756 26.6721 14.6552 34.3475h21.3565c-3.2594-2.2479-6.1961-4.7604-8.7957-7.5367-.0065-.0069-.0129-.0138-.0194-.0207z" fill="#e57373"/></g></svg>