<svg clip-rule="evenodd" fill-rule="evenodd" stroke-linejoin="round" stroke-miterlimit="2" viewBox="0 0 512 512" xmlns="http://www.w3.org/2000/svg" xmlns:serif="http://www.serif.com/" width="300" height="300" version="1.1" xmlns:xlink="http://www.w3.org/1999/xlink" xmlns:svgjs="http://svgjs.dev/svgjs"><g width="100%" height="100%" transform="matrix(1,0,0,1,0,0)"><g transform="translate(0 -2810)"><g id="Icons"><path d="m79.719 2935.31c-.056.03-.111.07-.165.11-41.304 27.44-68.554 74.4-68.554 127.66 0 84.54 68.635 153.18 153.174 153.18 35.813 0 68.772-12.32 94.866-32.94 25.71 24.04 60.237 38.77 98.177 38.77 79.356 0 143.783-64.43 143.783-143.78 0-79.36-64.427-143.78-143.783-143.78-29.822 0-57.535 9.09-80.519 24.67-27.996-30.31-68.06-49.29-112.524-49.29-31.203 0-60.24 9.35-84.455 25.4zm277.498 9.22c73.837 0 133.783 59.94 133.783 133.78 0 73.83-59.946 133.78-133.783 133.78-73.836 0-133.782-59.95-133.782-133.78 0-73.84 59.946-133.78 133.782-133.78zm-292.018 15.14c-27.23 26.07-44.199 62.77-44.199 103.41 0 79.02 64.154 143.18 143.174 143.18 12.906 0 25.416-1.71 37.311-4.92-63.644-4.84-112.542-35.09-138.229-78.9-25.904-44.19-28.367-102.38 1.943-162.77zm203.363 5.47c-26.128-27.84-63.243-45.23-104.388-45.23-28.811 0-55.645 8.53-78.122 23.2-40.553 64.24-41.571 127.53-14.17 174.27 27.394 46.72 82.987 76.61 154.782 74.54 8.986-4.37 17.448-9.66 25.265-15.74-21.436-23.04-35.407-53.13-38.041-86.38-2.142 1.67-4.226 2.32-5.806 1.56-3.373-1.62-3.173-9.05.447-16.58 1.525-3.17 3.415-5.85 5.344-7.77 1.108-14.24 4.292-27.89 9.25-40.66-4.563 2.73-8.824 3.44-10.671 1.42-2.53-2.76.415-9.58 6.571-15.22 4.943-4.53 10.463-6.94 13.756-6.28 9.226-15.89 21.406-29.85 35.783-41.13zm-94.683 143.42c7.607 3.44 12.529 9.01 10.984 12.42-1.544 3.41-8.974 3.38-16.581-.07-7.607-3.44-12.529-9.01-10.984-12.42 1.544-3.41 8.974-3.38 16.581.07zm3.338-19.39c8.351 0 15.131 3.04 15.131 6.78 0 3.75-6.78 6.79-15.131 6.79-8.35 0-15.13-3.04-15.13-6.79 0-3.74 6.78-6.78 15.13-6.78zm-19.887-19.26c5.953-5.86 12.918-8.44 15.543-5.77 2.625 2.66-.076 9.58-6.029 15.44-5.954 5.86-12.918 8.45-15.543 5.78s.076-9.59 6.029-15.45zm37.732-5.56c3.62-7.53 9.298-12.32 12.671-10.69 3.373 1.62 3.173 9.04-.447 16.57s-9.298 12.32-12.672 10.69c-3.373-1.62-3.173-9.05.448-16.57zm-53.342-3.83c3.154-7.73 8.53-12.86 11.996-11.45 3.466 1.42 3.719 8.84.564 16.58-3.154 7.73-8.53 12.86-11.996 11.44-3.466-1.41-3.719-8.84-.564-16.57zm-18.224-1.05c.598-8.33 4.115-14.88 7.849-14.61s6.279 7.25 5.681 15.58-4.116 14.87-7.849 14.6c-3.734-.26-6.28-7.24-5.681-15.57zm58.132-22.92c6.156-5.64 13.208-7.99 15.737-5.23s-.415 9.59-6.571 15.23-13.207 7.98-15.737 5.22c-2.529-2.76.415-9.58 6.571-15.22zm-19.487-5.59c3.621-7.53 9.298-12.32 12.672-10.7 3.373 1.63 3.173 9.05-.447 16.58-3.621 7.52-9.299 12.32-12.672 10.69-3.373-1.62-3.173-9.05.447-16.57zm274.408-27.57c-3.579 1.49-6.29 4.46-7.785 8.44-1.844 4.9-1.779 11.5.887 17.92 2.667 6.42 7.294 11.13 12.069 13.28 3.872 1.75 7.89 1.92 11.47.44 3.579-1.49 6.29-4.46 7.785-8.44 1.844-4.9 1.779-11.5-.887-17.92s-7.294-11.12-12.069-13.28c-3.872-1.74-7.89-1.92-11.47-.44zm-287.876 17.13c3.621-7.52 9.299-12.31 12.672-10.69s3.173 9.05-.447 16.57c-3.621 7.53-9.298 12.32-12.672 10.7-3.373-1.63-3.173-9.05.447-16.58zm291.711-7.89c1.493-.62 3.164-.03 4.734.99 2.335 1.51 4.394 4.1 5.735 7.33 1.34 3.22 1.722 6.51 1.146 9.23-.388 1.83-1.151 3.43-2.644 4.05s-3.164.04-4.734-.98c-2.335-1.51-4.394-4.11-5.734-7.33-1.34-3.23-1.723-6.52-1.147-9.24.388-1.83 1.151-3.43 2.644-4.05zm-262.44 2.73c-3.585-7.55-3.751-14.97-.37-16.58s9.036 3.21 12.621 10.75c3.586 7.54 3.751 14.97.371 16.58-3.381 1.61-9.037-3.21-12.622-10.75z" fill="#6c63ff" fill-opacity="1" data-original-color="#000000ff" stroke="none" stroke-opacity="1"/></g></g></g></svg>