<svg clip-rule="evenodd" fill-rule="evenodd" stroke-linejoin="round" stroke-miterlimit="2" viewBox="0 0 510 510" xmlns="http://www.w3.org/2000/svg"><g><g><g><path d="m296.856 48.558c18.576 4.42 36.306 11.771 52.547 21.779l34.146-15.149 40.23 40.23-15.149 34.146c10.008 16.241 17.359 33.972 21.779 52.547l34.841 13.41v56.917l-34.841 13.41c-4.42 18.551-11.771 36.281-21.779 52.522l15.149 34.146-40.23 40.255-34.146-15.174c-16.241 10.008-33.971 17.384-52.547 21.804l-13.41 34.816h-56.917l-13.41-34.841c-18.551-4.42-36.281-11.771-52.522-21.779l-34.146 15.174-40.254-40.255 15.173-34.121c-10.008-16.266-17.384-33.996-21.804-52.547l-34.816-13.41v-56.917l34.816-13.41c4.42-18.575 11.796-36.306 21.804-52.547l-15.173-34.146 40.254-40.23 34.121 15.149c16.266-10.008 33.996-17.359 52.547-21.779l13.41-34.841h56.917z" fill="#ffe177"/><path d="m372.076 60.279 11.473-5.091 40.23 40.23-15.149 34.146c10.008 16.241 17.359 33.972 21.779 52.547l34.841 13.41v56.917l-34.841 13.41c-4.42 18.551-11.771 36.281-21.779 52.522l15.149 34.146-40.23 40.255-11.473-5.091 35.164-35.164-15.173-34.146c10.007-16.241 17.358-33.971 21.778-52.522l34.841-13.41v-56.917l-34.841-13.41c-4.42-18.575-11.771-36.306-21.778-52.547l15.173-34.146zm-250.716 0 5.091-5.091 34.121 15.149c-2.409 1.341-4.793 2.731-7.127 4.197zm175.496-11.721c18.576 4.42 36.306 11.771 52.547 21.779l-9.411 4.197c-16.241-10.008-41.124-21.556-59.699-25.976l-13.41-34.841h16.563zm-136.259 329.039-34.146 15.174-5.091-5.091 32.085-14.255c2.334 1.441 4.718 2.831 7.152 4.172zm188.806 0c-16.241 10.008-33.971 17.384-52.547 21.804l-13.41 34.816h-16.563l13.41-34.816c18.575-4.42 43.458-15.968 59.723-25.976z" fill="#ffd064"/><path d="m254.987 95.517c70.951 0 128.463 57.512 128.463 128.463 0 70.925-57.512 128.437-128.463 128.437-70.925 0-128.437-57.512-128.437-128.437 0-70.951 57.512-128.463 128.437-128.463z" fill="#eceff1"/><path d="m254.987 95.517c2.923 0 5.819.104 8.716.313-66.881 4.462-119.774 60.122-119.774 128.15 0 68.002 52.893 123.662 119.774 128.15-2.897.183-5.793.287-8.716.287-70.925 0-128.437-57.512-128.437-128.437 0-70.951 57.512-128.463 128.437-128.463z" fill="#d1d1d6"/></g><g><path d="m267.265 418.569 89.971-89.971 73.554 73.555c5.547 5.545 5.547 14.593 0 20.138l-69.832 69.832c-5.545 5.547-14.592 5.547-20.138 0z" fill="#ffddce"/><path d="m135.253 286.631 122.925-122.925c9.901-9.901 26.105-9.901 36.006 0 9.903 9.901 9.903 26.104 0 36.006l-10.902 10.902c9.901-9.901 26.103-9.901 36.006 0 9.901 9.901 9.901 26.104 0 36.006l-10.902 10.904c9.901-9.903 26.103-9.903 36.006 0 9.901 9.901 9.901 26.104 0 36.006l-10.904 10.902c9.903-9.902 26.105-9.902 36.006 0 9.903 9.901 9.903 26.104 0 36.005l-4.135 4.135-85.896 86.194c-6.001 6.019-13.316 9.061-21.816 9.068-8.502.007-15.82-3.02-21.832-9.032l-5.277-5.276-61.358 61.358c-5.545 5.546-14.593 5.546-20.138 0l-69.832-69.832c-5.547-5.547-5.547-14.594 0-20.139l61.358-61.359-5.315-5.314c-12.01-12.01-12.01-31.599 0-43.609" fill="#f6dccd"/><path d="m283.282 210.615c-8.261 8.26-43.867 44.798-52.127 36.537-8.261-8.262-8.261-21.657 0-29.917l52.971-52.973c1.706-1.705 3.629-3.056 5.681-4.057 1.555.982 3.026 2.148 4.377 3.501 9.901 9.901 9.901 26.104 0 36.006z" fill="#f2d0c1"/><path d="m189.443 175.078v.002c-8.576 8.574-8.576 22.609 0 31.183l35.063 35.063c8.574 8.575 22.608 8.575 31.183 0v-.001c8.575-8.576 8.575-22.608.002-31.183l-35.064-35.064c-8.575-8.574-22.609-8.574-31.184 0" fill="#f1cbbc"/><path d="m186.872 178.17c-5.895 8.576-5.039 20.484 2.57 28.094l35.064 35.063c7.086 7.086 17.901 8.315 26.281 3.689-.427-6.222-3.004-12.32-7.733-17.049l-42.51-42.511c-3.869-3.869-8.654-6.297-13.672-7.286" fill="#ffddce"/><path d="m167.717 215.722c-8.575 8.576-8.575 22.609 0 31.185l25.144 25.145c8.576 8.575 22.609 8.575 31.186 0 8.575-8.577 8.575-22.609 0-31.184l-25.145-25.146c-8.577-8.575-22.611-8.575-31.185 0" fill="#f1cbbc"/><path d="m163.979 220.713c-4.569 8.369-3.323 19.133 3.738 26.195l25.144 25.144c7.063 7.063 17.826 8.307 26.195 3.738-.581-6.029-3.169-11.898-7.76-16.489l-30.828-30.828c-4.592-4.591-10.459-7.179-16.489-7.76" fill="#ffddce"/><path d="m144.123 254.497c-8.576 8.574-8.576 22.609 0 31.185l15.227 15.227c8.575 8.575 22.609 8.575 31.185.001v-.001c8.576-8.577 8.576-22.608 0-31.185l-15.228-15.227c-8.575-8.575-22.609-8.575-31.184 0" fill="#f1cbbc"/><path d="m140.401 259.458c-4.588 8.373-3.349 19.153 3.721 26.224l15.229 15.226c6.841 6.844 17.157 8.226 25.405 4.149-.737-6.318-3.516-12.438-8.337-17.259l-20.21-20.209c-4.45-4.452-10.008-7.161-15.808-8.131" fill="#ffddce"/><path d="m122.041 294.786c-8.575 8.575-8.575 22.61 0 31.184l5.311 5.31c8.573 8.575 22.607 8.575 31.184 0 8.575-8.577 8.575-22.608 0-31.184l-5.31-5.31c-8.577-8.576-22.609-8.576-31.185 0" fill="#f1cbbc"/><path d="m119.371 298.023c-5.785 8.567-4.895 20.382 2.67 27.947l5.311 5.309c6.502 6.504 16.142 8.074 24.164 4.715.676-8.179-2.092-16.597-8.317-22.818l-6.947-6.949c-4.718-4.72-10.699-7.454-16.881-8.204" fill="#ffddce"/></g></g><path d="m93.85 372.733-13.277-13.276c-2.341-2.341-2.998-5.882-1.653-8.907 0 0 13.488-30.336 13.489-30.335-8.638-14.721-15.199-30.589-19.566-47.114l-30.963-11.917c-3.088-1.188-5.126-4.156-5.126-7.466v-56.887c0-3.309 2.038-6.277 5.126-7.466 0 0 30.96-11.915 30.96-11.915 4.367-16.569 10.929-32.404 19.571-47.166l-13.491-30.341c-1.345-3.025-.688-6.567 1.653-8.907l40.216-40.216c2.341-2.341 5.882-2.999 8.908-1.654 0 0 30.341 13.491 30.341 13.491 14.761-8.641 30.593-15.199 47.116-19.524l11.968-31.013c1.19-3.085 4.156-5.12 7.463-5.12h56.887c3.311 0 6.28 2.04 7.468 5.131 0 0 11.913 31.004 11.912 31.004 16.521 4.325 32.351 10.882 47.11 19.522l30.341-13.491c3.026-1.345 6.567-.687 8.908 1.654l40.216 40.216c2.338 2.338 2.996 5.873 1.657 8.896 0 0-13.441 30.346-13.442 30.346 8.645 14.765 15.205 30.604 19.53 47.177l30.948 11.91c3.088 1.189 5.126 4.157 5.126 7.466v56.887c0 3.31-2.038 6.278-5.126 7.466 0 0-30.952 11.913-30.952 11.912-4.33 16.521-10.927 32.35-19.53 47.108l13.446 30.356c1.339 3.023.681 6.559-1.657 8.897l-15.813 15.812 26.974 26.974c3.124 3.124 3.124 8.189 0 11.314l-87.1 87.1c-3.124 3.124-8.189 3.124-11.314 0l-64.041-64.04c-6.028 3.994-12.903 6.007-20.563 6.013-10.177.009-18.972-3.525-26.246-10.543l-63.497 63.497c-3.124 3.124-8.189 3.124-11.314 0l-87.101-87.1c-1.5-1.501-2.343-3.536-2.343-5.657 0-2.122.843-4.157 2.343-5.657zm308.45-8.777c5.143-5.143 11.933-11.933 11.933-11.933l-12.902-29.127c-1.065-2.404-.88-5.177.493-7.419 9.527-15.549 16.592-32.465 20.808-50.203.61-2.568 2.447-4.669 4.91-5.617l29.704-11.432v-45.901l-29.704-11.432c-2.465-.948-4.303-3.052-4.911-5.622-4.214-17.785-11.219-34.695-20.796-50.237-1.383-2.245-1.571-5.027-.504-7.437l12.902-29.127-32.45-32.45-29.123 12.949c-2.412 1.072-5.199.886-7.447-.5-15.542-9.577-32.453-16.582-50.185-20.796-2.569-.611-4.671-2.45-5.618-4.914l-11.434-29.758h-45.903l-11.487 29.768c-.949 2.46-3.049 4.294-5.614 4.904-17.732 4.214-34.643 11.219-50.185 20.796-2.248 1.386-5.035 1.572-7.447.5l-29.123-12.949-32.444 32.444 12.948 29.123c1.073 2.412.886 5.199-.499 7.447-9.581 15.548-16.588 32.467-20.858 50.26-.614 2.56-2.449 4.654-4.906 5.599l-29.704 11.432v45.901l29.704 11.432c2.455.945 4.289 3.037 4.905 5.594 4.269 17.736 11.273 34.706 20.853 50.198 1.391 2.249 1.58 5.041.505 7.458l-12.948 29.122 9.39 9.39 23.604-23.603c-1.045-.794-2.049-1.667-3.001-2.62l-5.14-5.14c-11.412-11.413-11.414-30.09.001-41.503 2.993-2.993 6.485-5.202 10.215-6.625-7.886-17.267-12.283-36.465-12.283-56.69 0-75.385 61.048-136.433 136.433-136.433 75.383 0 136.506 61.049 136.506 136.433 0 26.464-7.535 51.17-20.573 72.093.193.184.384.371.574.56 10.821 10.821 12.421 27.508 4.799 40.062zm-112.315 61.886c15.55 15.549 57.846 57.844 57.846 57.844l75.786-75.786-57.974-57.975zm-139.169-125.976c-5.191-5.192-13.686-5.19-18.876.001-5.191 5.19-5.19 13.685 0 18.875l5.14 5.141c1.888 1.888 4.214 3.09 6.658 3.604.178.028.355.061.531.101 4.125.696 8.522-.539 11.688-3.705 5.191-5.191 5.191-13.686 0-18.876zm206.141-10.378c11.745-18.597 18.541-40.631 18.541-64.25 0-66.546-53.961-120.433-120.506-120.433-66.544 0-120.433 53.889-120.433 120.433 0 10.049 1.228 19.811 3.543 29.144 1.105-1.714 2.405-3.335 3.902-4.832 4.393-4.394 9.862-7.096 15.579-8.107-3.086-10.069-.665-21.503 7.262-29.432 4.109-4.108 9.159-6.738 14.474-7.888-4.093-10.53-1.907-22.993 6.559-31.458 11.414-11.415 30.09-11.414 41.503-.001l7.015 7.015 18.024-18.024c12.696-12.698 33.472-12.699 46.171-.001 9.785 9.784 12.03 24.367 6.734 36.353 6.446 1.092 12.621 4.112 17.569 9.061 9.784 9.784 12.028 24.366 6.733 36.351 6.446 1.092 12.621 4.112 17.569 9.06 9.784 9.783 12.029 24.363 6.736 36.349 1.016.172 2.026.392 3.025.66zm-80.234-82.422 10.554-10.554c6.476-6.475 6.476-17.07.001-23.544-6.475-6.475-17.07-6.476-23.543-.001l-18.026 18.025 15.617 15.616c2.803 2.804 4.918 6.046 6.344 9.511zm-79.533-4.211 33.945 33.943c5.19 5.191 13.685 5.191 18.876 0 1.409-1.409 2.436-3.062 3.08-4.826.045-.143.094-.285.147-.425 1.518-4.637.442-9.956-3.226-13.625l-33.945-33.945c-5.191-5.19-13.684-5.19-18.876.002-5.191 5.191-5.191 13.685-.001 18.876zm-21.031 39.347 24.342 24.342c5.191 5.19 13.685 5.192 18.876.001 0-.001.001-.001.001-.001 5.191-5.191 5.191-13.685-.001-18.876l-24.497-24.496c-5.203-5.037-13.581-4.986-18.721.153-5.19 5.191-5.191 13.686 0 18.877zm-22.841 37.538 14.741 14.741c5.19 5.19 13.685 5.19 18.876 0 5.191-5.191 5.191-13.685 0-18.876 0 0-16.397-16.2-17.315-16.749-.085-.049-.17-.099-.254-.148-5.092-2.893-11.719-2.174-16.048 2.156-5.192 5.19-5.191 13.685 0 18.876zm172.013 18.148 10.551-10.551c6.475-6.475 6.475-17.07 0-23.544-6.474-6.475-17.069-6.475-23.543 0l-13.813 13.812c-3.122 3.122-8.191 3.122-11.313 0s-3.122-8.191 0-11.313l13.812-13.812 10.555-10.556c6.475-6.474 6.474-17.069 0-23.543-6.474-6.475-17.069-6.476-23.543-.001l-20.472 20.471c-1.424 3.371-3.504 6.525-6.241 9.261-6.041 6.042-14.119 8.885-22.076 8.53.119 7.677-2.733 15.392-8.557 21.215-6.505 6.507-15.372 9.304-23.907 8.393-.289 7.115-3.134 14.143-8.535 19.544-6.129 6.128-14.351 8.966-22.419 8.513.036 7.569-2.818 15.149-8.56 20.89-5.971 5.971-13.93 8.817-21.797 8.541l-59.09 59.089 75.787 75.786 63.492-63.491c3.124-3.124 8.189-3.124 11.313 0l5.109 5.108c4.261 4.26 9.447 6.406 15.472 6.401 6.024-.005 11.207-2.16 15.459-6.427l.009-.009 83.148-83.433.01-.01 4.004-4.004c6.475-6.474 6.475-17.068-.001-23.543-1.179-1.179-2.495-2.144-3.898-2.893-6.301-3.359-14.349-2.403-19.643 2.891-1.561 1.56-3.607 2.341-5.653 2.342l-.006.003c-4.416 0-8-3.585-8-8 0-.447.036-.885.107-1.295.122-.752.352-1.489.69-2.188"/></g></svg>