<svg id="Layer_1" enable-background="new 0 0 512 512" height="512" viewBox="0 0 512 512" width="512" xmlns="http://www.w3.org/2000/svg"><g clip-rule="evenodd" fill-rule="evenodd"><path d="m256 133.201c-67.723 0-122.803 55.088-122.803 122.803s55.081 122.795 122.803 122.795c67.715 0 122.802-55.08 122.802-122.795s-55.087-122.803-122.802-122.803zm-32.64 360.799v-48.371c0-4.006-2.791-7.465-6.697-8.311-21.763-4.695-42.303-13.209-61.053-25.289-3.357-2.17-7.79-1.697-10.621 1.135l-34.209 34.209-46.148-46.148 34.208-34.215c2.832-2.824 3.311-7.258 1.143-10.623-12.088-18.736-20.602-39.275-25.297-61.045-.846-3.912-4.305-6.697-8.317-6.697h-48.371v-65.275h48.371c4.013 0 7.472-2.791 8.317-6.709 4.695-21.756 13.209-42.303 25.297-61.041 2.168-3.371 1.689-7.789-1.143-10.621l-34.209-34.207 46.148-46.148 34.209 34.209c2.845 2.83 7.264 3.297 10.621 1.127 18.742-12.08 39.27-20.586 61.053-25.289 3.906-.844 6.697-4.311 6.697-8.311v-48.38h65.27v48.379c0 4 2.789 7.467 6.715 8.311 21.756 4.703 42.297 13.209 61.039 25.289 3.373 2.17 7.785 1.703 10.622-1.127l34.202-34.209 46.154 46.148-34.209 34.207c-2.83 2.832-3.303 7.25-1.135 10.621 12.081 18.73 20.595 39.271 25.291 61.041.852 3.918 4.311 6.709 8.316 6.709h48.379v65.275h-48.379c-4.006 0-7.473 2.785-8.316 6.697-4.696 21.762-13.21 42.295-25.291 61.045-2.168 3.365-1.695 7.799 1.135 10.623l34.209 34.215-46.154 46.148-34.202-34.209c-2.837-2.832-7.249-3.305-10.622-1.143-18.742 12.088-39.283 20.602-61.039 25.297-3.926.846-6.715 4.305-6.715 8.311v48.372zm73.775 17h-82.275c-4.689 0-8.5-3.797-8.5-8.5v-50.127c-19.061-4.805-37.209-12.318-54.107-22.42l-35.459 35.445c-1.596 1.602-3.75 2.494-6.014 2.494-2.25 0-4.419-.893-6.007-2.494l-58.167-58.168c-3.325-3.316-3.325-8.701 0-12.02l35.444-35.459c-10.101-16.891-17.62-35.039-22.419-54.107h-50.127c-4.702 0-8.507-3.816-8.507-8.506v-82.27c0-4.703 3.805-8.5 8.507-8.5h50.127c4.799-19.066 12.318-37.215 22.419-54.107l-35.444-35.459c-1.602-1.602-2.494-3.762-2.494-6.012 0-2.264.893-4.42 2.494-6.008l58.167-58.182c3.317-3.311 8.703-3.311 12.021 0l35.459 35.459c16.892-10.102 35.039-17.621 54.107-22.418v-50.141c0-4.688 3.811-8.5 8.5-8.5h82.275c4.695 0 8.492 3.813 8.492 8.5v50.143c19.074 4.797 37.223 12.316 54.115 22.418l35.458-35.459c1.602-1.588 3.765-2.479 6.007-2.479 2.264 0 4.426.891 6.014 2.479l58.182 58.182c3.311 3.318 3.311 8.695 0 12.02l-35.459 35.459c10.102 16.879 17.621 35.033 22.418 54.107h50.141c4.69 0 8.5 3.797 8.5 8.5v82.27c0 4.689-3.81 8.506-8.5 8.506h-50.141c-4.797 19.055-12.316 37.209-22.418 54.107l35.459 35.459c1.588 1.588 2.486 3.75 2.486 6.014 0 2.242-.898 4.418-2.486 6.006l-58.182 58.168c-3.318 3.318-8.703 3.318-12.021 0l-35.458-35.445c-16.893 10.102-35.041 17.615-54.115 22.42v50.125c0 4.703-3.796 8.5-8.492 8.5zm-41.135-115.201c-77.087 0-139.803-62.709-139.803-139.795s62.717-139.803 139.803-139.803c77.08 0 139.802 62.717 139.802 139.803s-62.721 139.795-139.802 139.795z" fill="#004960"/><path d="m241.643 318.111c-.73 0-1.474-.102-2.211-.297-4.533-1.217-7.222-5.873-6.012-10.412l28.729-107.201c1.217-4.527 5.871-7.223 10.412-6.008 4.534 1.217 7.223 5.879 6.014 10.406l-28.736 107.201c-1.006 3.798-4.446 6.311-8.196 6.311zm-36.453-12.351c-2.182 0-4.351-.83-6.006-2.486l-41.264-41.264c-3.311-3.311-3.311-8.695 0-12.02l41.264-41.248c3.317-3.318 8.695-3.318 12.02 0 3.318 3.316 3.318 8.701 0 12.02l-35.242 35.242 35.242 35.25c3.318 3.311 3.318 8.695 0 12.02-1.662 1.656-3.844 2.486-6.014 2.486zm101.613 0c-2.176 0-4.351-.83-6.013-2.486-3.317-3.324-3.317-8.709 0-12.02l35.249-35.25-35.249-35.242c-3.317-3.318-3.317-8.703 0-12.02 3.317-3.318 8.71-3.318 12.021 0l41.263 41.248c1.587 1.602 2.486 3.758 2.486 6.014s-.899 4.42-2.486 6.006l-41.263 41.264c-1.656 1.656-3.831 2.486-6.008 2.486z" fill="#fbcf07"/></g></svg>