<svg id="Layer_1" viewBox="0 0 512 512" xmlns="http://www.w3.org/2000/svg" data-name="Layer 1"><g fill-rule="evenodd"><g fill="#0d4663"><path d="m149.141 492.998h-127.767c-1.302 0-2.362-1.094-2.362-2.396v-86.862c0-1.302 1.061-2.401 2.362-2.401 4.436 0 8.004-3.582 8.004-7.999s-3.568-8.004-8.004-8.004c-10.125 0-18.369 8.254-18.369 18.403v86.862c0 10.144 8.245 18.398 18.369 18.398h127.767c4.436 0 8.004-3.582 8.004-7.999s-3.568-8.004-8.004-8.004z"/><path d="m361.62 405.336-29.989 87.663h-25.409l37.269-123.524c1.688-5.521 6.123-9.108 11.861-9.599l57.712-4.918c4.098-.352 7.28-3.819 7.28-7.97v-45.485l14.319-8.259c3.809-2.208 5.159-7.102 2.941-10.925s-7.136-5.14-10.945-2.927l-16.441 9.489h-90.208c-5.93 0-10.752-4.821-10.752-10.752s4.821-10.762 10.752-10.762h69.573c10.462 0 19.623-5.106 25.168-14.011l6.75-10.969c6.895-11.089 15.525-16.258 27.241-16.258 12.246 0 22.612 10.077 22.612 22.01v113.361c0 13.143-10.703 23.837-23.817 23.837h-57.953c-12.825 0-23.818 7.849-27.964 19.999zm83.651-247.015c11.86 0 21.503 9.633 21.503 21.475s-9.643 21.474-21.503 21.474-21.456-9.633-21.456-21.474 9.643-21.475 21.456-21.475zm-55.687 243.018h57.953c21.937 0 39.825-17.873 39.825-39.839v-113.361c0-15.728-10.318-29.579-24.493-35.264 11.812-6.311 19.912-18.77 19.912-33.08 0-20.665-16.827-37.477-37.51-37.477s-37.462 16.812-37.462 37.477c0 15.163 9.064 28.244 22.034 34.135-8.679 3.819-16.007 10.501-21.937 20.038l-6.798 10.969c-2.604 4.209-6.557 6.432-11.523 6.432h-69.573c-14.754 0-26.759 12.001-26.759 26.759s12.005 26.754 26.759 26.754h84.375v34.758l-50.384 4.296c-12.343 1.051-22.226 9.064-25.794 20.915l-40.403 133.837c-.723 2.425-.289 5.053 1.205 7.083 1.543 2.035 3.905 3.23 6.461 3.23h41.85c3.423 0 6.461-2.174 7.57-5.41l31.869-93.077c1.929-5.66 6.847-9.175 12.825-9.175z"/><path d="m180.336 492.998-29.941-87.663c-4.195-12.15-15.139-19.999-28.013-19.999h-57.905c-13.162 0-23.866-10.694-23.866-23.837v-113.361c0-11.933 10.366-22.01 22.612-22.01 11.716 0 20.394 5.168 27.241 16.258l6.798 10.969c5.496 8.905 14.657 14.011 25.119 14.011h69.621c5.93 0 10.752 4.826 10.752 10.762s-4.822 10.752-10.752 10.752h-90.257l-16.441-9.489c-3.809-2.213-8.727-.901-10.896 2.927-2.218 3.823-.916 8.717 2.893 10.925l14.319 8.259v45.485c0 4.151 3.182 7.618 7.328 7.97l57.712 4.918c5.738.492 10.125 4.079 11.813 9.599l37.269 123.524h-25.409zm-113.641-334.677c11.861 0 21.504 9.633 21.504 21.475s-9.643 21.474-21.504 21.474-21.455-9.633-21.455-21.474 9.643-21.475 21.455-21.475zm117.112 206.53c-3.568-11.851-13.452-19.864-25.794-20.915l-50.384-4.296v-34.758h84.375c14.705 0 26.759-12.005 26.759-26.754s-12.053-26.759-26.759-26.759h-69.621c-4.918 0-8.919-2.223-11.523-6.432l-6.798-10.969c-5.882-9.537-13.259-16.219-21.937-20.038 13.018-5.891 22.034-18.972 22.034-34.135 0-20.665-16.778-37.477-37.462-37.477s-37.462 16.812-37.462 37.477c0 14.31 8.052 26.768 19.864 33.08-14.175 5.684-24.445 19.536-24.445 35.264v113.361c0 21.966 17.839 39.839 39.825 39.839h57.905c6.027 0 10.945 3.515 12.873 9.175l31.821 93.077c1.109 3.235 4.147 5.41 7.57 5.41h41.898c2.507 0 4.918-1.196 6.413-3.23 1.495-2.03 1.977-4.658 1.254-7.083l-40.403-133.837z"/><path d="m490.593 385.336c-4.436 0-8.004 3.582-8.004 8.004s3.568 7.999 8.004 7.999c1.302 0 2.411 1.099 2.411 2.401v86.862c0 1.302-1.109 2.396-2.411 2.396h-127.767c-4.387 0-8.004 3.582-8.004 8.004s3.616 7.999 8.004 7.999h127.767c9.888 0 18.026-7.872 18.403-17.689v-88.282c-.376-9.821-8.515-17.693-18.403-17.693z"/><path d="m271.798 492.998h-7.811v-166.56h84.037c4.436 0 8.003-3.582 8.003-8.003s-3.568-7.999-8.003-7.999h-184.081c-4.436 0-8.003 3.582-8.003 7.999s3.568 8.003 8.003 8.003h84.037v166.56h-7.811c-4.436 0-8.004 3.582-8.004 7.999s3.568 8.004 8.004 8.004h31.628c4.436 0 8.004-3.582 8.004-8.004s-3.568-7.999-8.004-7.999z"/></g><path d="m112.788 36.479c0-9.638 7.859-17.478 17.502-17.478h118.799c9.643 0 17.502 7.84 17.502 17.478v84.514c0 9.638-7.859 17.478-17.502 17.478h-67.596c-2.121 0-4.146.844-5.641 2.343l-24.686 24.681v-19.02c0-4.421-3.616-8.004-8.004-8.004h-12.873c-9.643 0-17.502-7.84-17.502-17.478v-84.514zm17.502 117.994h4.87v30.331c0 3.24 1.928 6.157 4.918 7.396 1.013.405 2.025.608 3.086.608 2.073 0 4.098-.815 5.641-2.348l36.016-35.987h50.287v14.126c0 16.398 13.307 29.743 29.7 29.743h54.434l30.375 30.37c1.495 1.533 3.568 2.343 5.641 2.343 1.013 0 2.073-.198 3.037-.607 2.989-1.239 4.966-4.156 4.966-7.391v-24.714h2.989c16.393 0 29.748-13.346 29.748-29.743v-72.128c0-16.402-13.355-29.743-29.748-29.743h-69.187c-4.388 0-8.003 3.582-8.003 7.999s3.616 8.003 8.003 8.003h69.187c7.57 0 13.741 6.162 13.741 13.741v72.128c0 7.575-6.171 13.741-13.741 13.741h-10.993c-4.436 0-8.004 3.582-8.004 7.999v13.404l-19.045-19.059c-1.494-1.5-3.568-2.343-5.689-2.343h-57.712c-7.57 0-13.741-6.167-13.741-13.741v-14.189c17.55-1.032 31.532-15.621 31.532-33.417v-84.516c0-18.461-15.043-33.48-33.509-33.48h-118.799c-18.466 0-33.46 15.019-33.46 33.48v84.514c0 18.461 14.994 33.48 33.46 33.48z" fill="#f58447"/><path d="m146.297 53.243h86.833c4.388 0 8.004-3.582 8.004-7.999s-3.616-7.999-8.004-7.999h-86.833c-4.436 0-8.003 3.583-8.003 7.999s3.568 7.999 8.003 7.999zm0 66.989h86.833c4.388 0 8.004-3.582 8.004-8.004s-3.616-7.998-8.004-7.998h-86.833c-4.436 0-8.003 3.582-8.003 7.998s3.568 8.004 8.003 8.004zm0-33.494h86.833c4.388 0 8.004-3.582 8.004-8.004s-3.616-7.999-8.004-7.999h-86.833c-4.436 0-8.003 3.582-8.003 7.999s3.568 8.004 8.003 8.004z" fill="#f58447"/></g></svg>