<svg id="_x33_0" enable-background="new 0 0 64 64" height="512" viewBox="0 0 64 64" width="512" xmlns="http://www.w3.org/2000/svg"><g><g><path d="m45.707 8.293-7.772 7.772.031.031c4.591 1.722 8.238 5.363 9.955 9.955l.013.013 7.772-7.772z" fill="#f0bc5e"/></g><g><path d="m17 57 8.189-8.189c-.017-.036-.038-.07-.056-.106l-4.519-5.593c-1.632-1.6-3.256-3.209-4.334-5.363l-.013-.016-9.267 9.267z" fill="#f0bc5e"/></g><g><g><path d="m60.945 48h2.055v-6h-2.055c-.778 0-1.473-.465-1.786-1.222-.303-.726-.142-1.551.409-2.103l1.455-1.456-4.244-4.244-1.457 1.456c-.55.552-1.376.71-2.04.438l-.101-.046c-.717-.296-1.181-.99-1.181-1.768v-2.055h-3.05c.019.333.05.662.05 1 0 3.317-1 5.634-2.397 7.555l.083-.091c.712-.299 1.494-.464 2.314-.464 3.31 0 6 2.69 6 6s-2.69 6-6 6-6-2.69-6-6c0-.622.095-1.222.271-1.787-2.07 2.019-4.134 4.043-5.099 7.167l-.042-.02c.525.359.87.957.87 1.64 0 .76-.428 1.412-1.052 1.751l3.272 3.273 1.457-1.456c.55-.553 1.374-.713 2.04-.438l.101.044c.717.299 1.182.993 1.182 1.771v2.055h6v-2.055c0-.778.465-1.473 1.222-1.786.726-.302 1.551-.143 2.102.409l1.456 1.456 4.244-4.244-1.455-1.456c-.551-.552-.712-1.377-.393-2.141.297-.718.991-1.183 1.769-1.183z" fill="#f0bc5e"/></g><g><path d="m38.131 50.36c-.179-.122-.378-.217-.592-.277z" fill="#f0bc5e"/></g></g><g><path d="m49 48c1.654 0 3-1.346 3-3s-1.346-3-3-3-3 1.346-3 3 1.346 3 3 3zm0-4c.551 0 1 .448 1 1s-.449 1-1 1-1-.448-1-1 .449-1 1-1z"/><path d="m63 9.071c0-4.45-3.621-8.071-8.071-8.071-2.156 0-4.183.84-5.707 2.364l-11.56 11.561c-1.495-.502-3.08-.794-4.717-.881-1.38-2.411-3.973-4.044-6.945-4.044-.761 0-1.495.114-2.194.313-1.726-3.245-5.079-5.313-8.806-5.313-5.514 0-10 4.486-10 10 0 .766.094 1.52.265 2.258-2.465.746-4.265 3.037-4.265 5.742 0 3.309 2.691 6 6 6h7.254c-.166.989-.254 1.993-.254 3 0 2.201.407 3.992 1.064 5.522l-8.921 8.922-4.964 12.906c-.119.308-.179.632-.179.963 0 1.482 1.206 2.687 2.687 2.687.331 0 .655-.061.964-.179l12.906-4.964 6.523-6.524c-.049.215-.08.437-.08.667 0 .771.301 1.468.78 2-.48.532-.78 1.229-.78 2 0 1.39.955 2.552 2.24 2.89.852 2.44 3.134 4.11 5.76 4.11s4.908-1.67 5.76-4.11c1.285-.338 2.24-1.5 2.24-2.89 0-.771-.301-1.468-.78-2 .48-.532.78-1.229.78-2 0-.71-.258-1.354-.672-1.869.622-1.679 1.597-3.022 2.732-4.262.43 3.45 3.375 6.131 6.94 6.131 3.86 0 7-3.141 7-7s-3.14-7-7-7c-.098 0-.193.01-.29.014.787-1.636 1.29-3.571 1.29-6.014 0-1.971-.338-3.867-.936-5.649l11.572-11.572c1.524-1.525 2.364-3.552 2.364-5.708zm-60 13.929c0-2.206 1.794-4 4-4s4 1.794 4 4h2c0-3.222-2.555-5.852-5.744-5.987-.17-.654-.256-1.329-.256-2.013 0-4.411 3.589-8 8-8 2.925 0 5.565 1.59 6.969 4.101-2.132 1.251-3.638 3.454-3.919 6.025-1.746.43-3.05 1.997-3.05 3.874h2c0-1.103.897-2 2-2s2 .897 2 2h2c0-1.835-1.248-3.368-2.935-3.838.41-2.912 2.911-5.162 5.935-5.162 3.309 0 6 2.691 6 6 0 .526-.086 1.041-.22 1.543-1.64.821-2.78 2.501-2.78 4.457h2c0-1.654 1.346-3 3-3s3 1.346 3 3-1.346 3-3 3h-27c-2.206 0-4-1.794-4-4zm24 6v3c0 1.654 1.346 3 3 3h8c.551 0 1 .448 1 1s-.449 1-1 1h-10c-1.654 0-3 1.346-3 3s1.346 3 3 3h2c.551 0 1 .448 1 1v5h-4c-.203 0-.401.021-.592.06-1.142-2.807-3.104-4.733-5.014-6.596-2.774-2.705-5.394-5.261-5.394-10.464 0-1.011.121-2.013.308-3zm11 23c0 .552-.449 1-1 1h-10c-.551 0-1-.448-1-1s.449-1 1-1h10c.551 0 1 .448 1 1zm-34.066 8.954c-.433.168-.934-.177-.934-.641 0-.085.016-.168.045-.246l1.002-2.606 2.491 2.491zm12.509-4.811-7.862 3.024-3.748-3.748 3.024-7.862 8.187-8.187c.939 1.475 2.103 2.705 3.293 3.879l-8.044 8.044 1.414 1.414 8.058-8.058c1.23 1.22 2.372 2.454 3.214 3.957zm15.557 4.857c-1.477 0-2.794-.786-3.524-2h7.048c-.73 1.214-2.047 2-3.524 2zm5-4h-10c-.551 0-1-.448-1-1s.449-1 1-1h10c.551 0 1 .448 1 1s-.449 1-1 1zm.592-7.94c-.191-.039-.389-.06-.592-.06h-4v-5c0-1.654-1.346-3-3-3h-2c-.551 0-1-.448-1-1s.449-1 1-1h10c1.654 0 3-1.346 3-3s-1.346-3-3-3h-8c-.551 0-1-.448-1-1v-3h5c2.757 0 5-2.243 5-5s-2.243-5-5-5c-.028 0-.054.008-.082.008.043-.334.082-.668.082-1.008 0-.654-.088-1.287-.236-1.896 7.972.888 14.236 7.73 14.236 15.896 0 5.203-2.62 7.759-5.394 10.464-1.91 1.863-3.872 3.789-5.014 6.596zm11.408-9.06c2.757 0 5 2.243 5 5s-2.243 5-5 5-5-2.243-5-5c0-.433.067-.859.176-1.274 1.091-1.065 2.184-2.153 3.127-3.411.544-.198 1.11-.315 1.697-.315zm-3.623-19.962 6.037-6.038-1.414-1.414-6.035 6.035c-1.284-1.152-2.729-2.121-4.301-2.871l8.336-8.336 8.586 8.586-8.341 8.341c-.749-1.572-1.717-3.018-2.868-4.303zm12.623-5.452-8.586-8.586 1.222-1.222c1.147-1.146 2.671-1.778 4.293-1.778 3.347 0 6.071 2.724 6.071 6.071 0 1.621-.631 3.146-1.778 4.293z"/></g></g></svg>