<svg id="_x33_0" enable-background="new 0 0 64 64" height="512" viewBox="0 0 64 64" width="512" xmlns="http://www.w3.org/2000/svg"><g><g><g><path d="m16.444 46.556c-.256 0-.512.098-.707.293-.391.391-.391 1.024 0 1.414.195.195.451.293.707.293s.512-.098.707-.293c.391-.391.391-1.024 0-1.414-.196-.195-.451-.293-.707-.293z"/></g><g><path d="m32 53c-.552 0-1 .448-1 1s.448 1 1 1 1-.448 1-1-.448-1-1-1z"/></g></g><g><path d="m15.509 14.727-2.415-.967c-.821-.328-1.452-.998-1.731-1.836l-.502-1.506c-.653-1.96-2.434-3.289-4.478-3.397-2.711 2.866-4.383 6.723-4.383 10.979 0 3.555 1.174 6.829 3.136 9.485l3.522-2.113c.701-.421 1.294-1.014 1.715-1.715l1.633-2.722c.412-.688 1.067-1.173 1.845-1.367l1.354-.338c1.057-.265 1.795-1.211 1.795-2.301 0-.976-.585-1.84-1.491-2.202z" fill="#f0bc5e"/></g><g><path d="m18 34c3.018 0 5.83-.851 8.239-2.303l-2.581-3.226c-.425-.531-.658-1.196-.658-1.874v-2.808c0-1.538-1.251-2.789-2.789-2.789-1.146 0-2.162.688-2.59 1.753l-.913 2.284c-.303.758-.912 1.367-1.671 1.671l-.894.357c-1.91.765-3.143 2.587-3.143 4.643v.663c2.117 1.033 4.486 1.629 7 1.629z" fill="#f0bc5e"/></g><g><path d="m34 18c0-7.554-5.242-13.87-12.282-15.548l-2.244 5.238c-.315.733-.474 1.51-.474 2.307 0 2.233 1.241 4.241 3.238 5.24l1.104.552c1.022.511 1.658 1.54 1.658 2.683v.89c0 2.003 1.189 3.807 3.031 4.596l4.008 1.718c1.249-2.279 1.961-4.894 1.961-7.676z" fill="#f0bc5e"/></g><g><path d="m40 15c-1.654 0-3 1.346-3 3s1.346 3 3 3 3-1.346 3-3-1.346-3-3-3zm0 4c-.552 0-1-.449-1-1s.448-1 1-1 1 .449 1 1-.448 1-1 1z"/><path d="m48 15c-1.654 0-3 1.346-3 3s1.346 3 3 3 3-1.346 3-3-1.346-3-3-3zm0 4c-.552 0-1-.449-1-1s.448-1 1-1 1 .449 1 1-.448 1-1 1z"/><path d="m56 15c-1.654 0-3 1.346-3 3s1.346 3 3 3 3-1.346 3-3-1.346-3-3-3zm0 4c-.552 0-1-.449-1-1s.448-1 1-1 1 .449 1 1-.448 1-1 1z"/><path d="m60 7h-29.055c-2.839-3.341-6.955-5.595-11.662-5.951-4.521-.341-8.918 1.098-12.362 4.057s-5.529 7.083-5.872 11.61c-.349 4.609 1.188 8.928 3.951 12.214v10.07h3.089c1.165 0 2.206.697 2.672 1.825.448 1.08.206 2.309-.618 3.133l-2.184 2.184 2.352 2.353c-3.477 1.526-5.311 3.412-5.311 5.505 0 5.846 13.911 9 27 9s27-3.154 27-9c0-2.093-1.834-3.979-5.311-5.505l2.352-2.353-2.184-2.184c-.824-.824-1.066-2.054-.597-3.182.445-1.079 1.486-1.776 2.651-1.776h3.089v-10h1c1.654 0 3-1.346 3-3v-16c0-1.654-1.346-3-3-3zm-56.957 9.868c.303-3.995 2.143-7.634 5.182-10.245 2.744-2.358 6.17-3.624 9.751-3.624.384 0 .771.015 1.157.044 3.995.303 7.633 2.143 10.244 5.182s3.883 6.913 3.58 10.908-2.143 7.634-5.182 10.245c-3.038 2.611-6.918 3.879-10.908 3.58-3.995-.303-7.633-2.143-10.244-5.182s-3.883-6.913-3.58-10.908zm14.267 18.106c1.397 6.91 7.559 12.026 14.69 12.026 8.271 0 15-6.729 15-15 0-.567-.041-1.13-.104-1.69l2.084 2.084c-.212 9.191-7.739 16.606-16.98 16.606-8.32 0-15.431-6.155-16.765-14.237.488.08.98.15 1.482.188.198.015.395.015.593.023zm27.337-5.974c.231.978.353 1.983.353 3 0 7.168-5.832 13-13 13-6.056 0-11.313-4.253-12.661-10.057 3.578-.275 6.967-1.666 9.74-4.049.68-.584 1.29-1.225 1.861-1.894zm12.353 25c0 3.311-10.268 7-25 7s-25-3.689-25-7c0-1.304 1.808-2.767 4.845-3.972l6.013 6.013 2.185-2.184c.824-.824 2.054-1.067 3.183-.598 1.077.446 1.774 1.487 1.774 2.652v3.089h14v-3.089c0-1.166.697-2.207 1.825-2.671 1.077-.447 2.309-.206 3.133.618l2.185 2.184 6.013-6.013c3.036 1.204 4.844 2.667 4.844 3.971zm0-17h-1.089c-1.979 0-3.745 1.183-4.52 3.058-.76 1.83-.347 3.916 1.052 5.314l.77.77-7.07 7.071-.771-.77c-1.398-1.398-3.483-1.812-5.358-1.032-1.831.755-3.014 2.521-3.014 4.5v1.089h-10v-1.089c0-1.979-1.183-3.745-3.058-4.519-1.83-.758-3.916-.347-5.314 1.051l-.771.77-7.07-7.071.77-.77c1.398-1.398 1.812-3.484 1.032-5.359-.755-1.83-2.522-3.013-4.5-3.013h-1.089v-6.071c1.771 1.511 3.852 2.675 6.158 3.36 1.14 9.423 9.272 16.711 18.842 16.711 9.708 0 17.726-7.323 18.852-16.734l.026.026c.449.45 1.071.708 1.708.708 1.331 0 2.414-1.083 2.414-2.414v-3.586h2zm4-11c0 .551-.448 1-1 1h-7v5.586c0 .338-.469.532-.707.293l-5.879-5.879h-13.989c1.44-2.302 2.315-4.931 2.526-7.716.285-3.757-.696-7.314-2.559-10.284h27.608c.552 0 1 .449 1 1z"/><path d="m47.556 46.556c-.256 0-.512.098-.707.293-.391.391-.391 1.024 0 1.414.195.195.451.293.707.293s.512-.098.707-.293c.391-.391.391-1.024 0-1.414-.195-.195-.451-.293-.707-.293z"/></g></g></svg>