<svg id="Layer_5" enable-background="new 0 0 64 64" height="512" viewBox="0 0 64 64" width="512" xmlns="http://www.w3.org/2000/svg"><g><g><path d="m38.714 11h-13.428c-2.592 4.551-5.286 10.771-5.286 17 0 6.385 1.684 12.766 3.098 17h17.804c1.414-4.234 3.098-10.615 3.098-17 0-6.229-2.694-12.449-5.286-17zm-6.714 23c-4.418 0-8-3.582-8-8s3.582-8 8-8 8 3.582 8 8-3.582 8-8 8z" fill="#f0bc5e"/></g><g><path d="m36.707 49.293h-9.414l-4.661 4.662 7.914 9.045h2.908l7.914-9.045z" fill="#f0bc5e"/></g><g><path d="m53 37c-1.412 0-2.812.303-4.099.882-1.147-1.483-2.678-2.607-4.425-3.256.321-2.144.524-4.379.524-6.626 0-9.632-6.228-19.229-8.904-22.908-.953-1.31-2.485-2.092-4.096-2.092s-3.143.782-4.096 2.092c-2.676 3.679-8.904 13.276-8.904 22.908 0 .527.014 1.053.035 1.578-5.197 1.541-9.099 6.058-9.878 11.424-.053-.002-.105-.002-.157-.002-4.411 0-8 3.589-8 8s3.589 8 8 8h16.296l-1.75-2h-14.546c-3.309 0-6-2.691-6-6s2.691-6 6-6c.27 0 .555.024.897.075l1.07.161.076-1.08c.337-4.822 3.615-8.992 8.123-10.522.201 2.294.57 4.527 1.02 6.608-2.421.684-4.188 2.91-4.188 5.5 0 .999.262 1.984.757 2.848l4.024 7.043 3.281-3.281c.012.026.022.05.028.062l.268.586h4.828c-.112.314-.184.648-.184 1v.395c0 .593.174 1.168.504 1.664l2.496 3.744 2.496-3.745c.33-.495.504-1.07.504-1.664v-.394c0-.352-.072-.686-.184-1h4.828l.267-.586c.005-.012.016-.035.028-.062l3.281 3.281 4.024-7.042c.494-.866.756-1.851.756-2.85 0-2.59-1.767-4.815-4.188-5.5.113-.522.22-1.054.322-1.593 1.469.628 2.727 1.681 3.605 3.054l.51.798.825-.466c1.197-.676 2.556-1.034 3.926-1.034 4.411 0 8 3.589 8 8s-3.589 8-8 8h-12.547l-1.75 2h14.297c5.514 0 10-4.486 10-10s-4.486-10-10-10zm-31.781 13.367-2.726-4.771c-.323-.563-.493-1.204-.493-1.855 0-1.652 1.112-3.071 2.644-3.544.863 3.45 1.884 6.336 2.591 8.154zm11.781 1.633v.395c0 .198-.059.39-.168.555l-.832 1.247-.832-1.248c-.109-.165-.168-.357-.168-.554v-.395c0-.551.448-1 1-1s1 .449 1 1zm-7.342-3c-1.004-2.399-4.658-11.77-4.658-21 0-9.045 5.959-18.21 8.521-21.731.579-.795 1.505-1.269 2.479-1.269s1.9.474 2.479 1.269c2.562 3.521 8.521 12.686 8.521 21.731 0 9.23-3.654 18.601-4.658 21zm20.342-5.259c0 .65-.17 1.292-.493 1.856l-2.726 4.77-2.017-2.017c.707-1.818 1.728-4.704 2.591-8.154 1.533.474 2.645 1.893 2.645 3.545z"/><path d="m5 30h2v-20h-2.461l2.969-6.68c.172-.389.813-.389.984 0l2.969 6.68h-2.461v20h2v-18h3.539l-4.219-9.493c-.407-.915-1.318-1.507-2.32-1.507s-1.913.592-2.32 1.507l-4.219 9.493h3.539z"/><path d="m53 30h2v-20h-2.461l2.969-6.68c.172-.389.813-.389.984 0l2.969 6.68h-2.461v20h2v-18h3.539l-4.219-9.493c-.407-.915-1.318-1.507-2.32-1.507s-1.913.592-2.32 1.507l-4.219 9.493h3.539z"/><path d="m32 17c-4.963 0-9 4.038-9 9s4.037 9 9 9 9-4.038 9-9-4.037-9-9-9zm0 2c3.859 0 7 3.14 7 7 0 1.075-.251 2.089-.685 3h-3.499c.112-.314.184-.648.184-1 0-1.302-.839-2.402-2-2.816v-4.184h-2v4.184c-1.161.414-2 1.514-2 2.816 0 .352.072.686.184 1h-3.499c-.434-.911-.685-1.925-.685-3 0-3.86 3.141-7 7-7zm-1 9c0-.551.448-1 1-1s1 .449 1 1-.448 1-1 1-1-.449-1-1zm-3.889 3h9.779c-1.263 1.235-2.988 2-4.889 2s-3.628-.765-4.89-2z"/><path d="m5 32h2v2h-2z"/><path d="m57 32h2v2h-2z"/></g></g></svg>