<svg id="Layer_5" enable-background="new 0 0 64 64" height="512" viewBox="0 0 64 64" width="512" xmlns="http://www.w3.org/2000/svg"><g><g><path d="m15 12c-1.657 0-3 1.343-3 3v1h-.667c-1.841 0-3.333 1.492-3.333 3.333 0 1.05.494 2.037 1.333 2.667l2.667 2v7.077l-1.507-.602c-5.766-2.308-9.493-7.811-9.493-14.021v-.353c0-8.327 6.774-15.101 15.102-15.101h8.898c3.309 0 6 2.691 6 6 0 3.072-2.321 5.608-5.301 5.956-.352-.572-.979-.956-1.699-.956z" fill="#f0bc5e"/></g><g><path d="m63 51.299-1.321-.479.595-1.274-3.82-3.819-1.272.596-.481-1.323h-5.402l-.479 1.321-1.272-.596-3.82 3.819.595 1.274-1.323.481v5.402l1.321.479-.596 1.273 3.82 3.82 1.273-.596.481 1.323h5.402l.479-1.321 1.273.596 3.82-3.82-.596-1.273 1.323-.481zm-9 6.701c-2.209 0-4-1.791-4-4s1.791-4 4-4 4 1.791 4 4-1.791 4-4 4z" fill="#f0bc5e"/></g><g><path d="m54 49c-2.757 0-5 2.243-5 5s2.243 5 5 5 5-2.243 5-5-2.243-5-5-5zm0 8c-1.654 0-3-1.346-3-3s1.346-3 3-3 3 1.346 3 3-1.346 3-3 3z"/><path d="m63 31v-10h-18v4h-4v-4h-12.077c-.083-.391-.231-.765-.456-1.102l-.963-1.445c-.33-.494-.504-1.069-.504-1.664v-2.789c0-1.654-1.346-3-3-3h-8c-.552 0-1-.448-1-1s.448-1 1-1h1v-2h-1c-1.654 0-3 1.346-3 3 0 .496.132.957.346 1.369-1.38.631-2.346 2.017-2.346 3.632v.012c-2.234.171-4 2.043-4 4.32 0 1.356.647 2.652 1.733 3.467l2.267 1.7v8.906c-3.715 2.106-6 5.994-6 10.302v19.292h22v-8.539c3.164-.847 5.992-2.684 8.063-5.35l1.501-1.932c.924-1.191 1.432-2.675 1.435-4.18h2.194l4.807-1.922v1.923h8v2h2v-2h8v-8h-8v-4zm-16-8h14v6h-14zm-19.753 1.495c.656-.329 1.158-.86 1.454-1.495h10.299v6h-12.424c.27-.614.424-1.288.424-2h2v-2h-2v-.382zm-17.313-3.295c-.585-.438-.934-1.137-.934-1.867 0-1.286 1.047-2.333 2.333-2.333h1.667v-1.999c0-1.103.896-2 1.999-2l2.002-.001h6.999c.552 0 1 .448 1 1v2.789c0 .991.29 1.95.84 2.773l.964 1.446c.128.193.196.418.196.649 0 .447-.248.849-.646 1.049l-1.354.676v3.618c0 1.654-1.346 3-3 3h-3.146c-.763 0-1.448-.424-1.789-1.105l-.171-.342-1.789.895.171.342c.682 1.362 2.053 2.21 3.578 2.21h.146v3.586c-1.804-1.161-3.831-1.992-6-2.417v-9.669zm2.237 13.838c6.192 1.017 11.177 5.81 12.483 11.902-.305.038-.613.06-.924.06-1.577 0-3.089-.484-4.371-1.4l-4.778-3.413-1.162 1.627 3.677 2.626c-.776 1.375-1.997 2.443-3.463 3.038-3.032-2.061-5.25-5.203-6.157-8.76.759-2.399 2.405-4.445 4.695-5.68zm12.829 25.962h-18v-16.032c1.42 2.678 3.524 4.982 6.125 6.586l1.917 1.182c2.403 1.481 5.167 2.264 7.991 2.264.664 0 1.319-.053 1.967-.135zm9.983-15.047-1.501 1.932c-2.524 3.251-6.333 5.115-10.449 5.115-2.453 0-4.854-.681-6.942-1.968l-.486-.299c1.289-.767 2.363-1.852 3.132-3.151 1.501.928 3.213 1.418 4.993 1.418 2.987 0 5.838-1.429 7.626-3.82l.644-.861v-1.333c0-1.103.897-2 2-2s2 .897 2 2c0 1.069-.361 2.122-1.017 2.967zm-.983-6.967c-1.48 0-2.759.816-3.451 2.014h-.549c-1.103 0-2-.897-2-2s.897-2 2-2h9v4h-1.549c-.692-1.197-1.971-2.014-3.451-2.014zm10 .337-3 1.2v-3.046l3 1.2zm17 1.677h-14v-4h14zm-8-6h-8v1.923l-4.808-1.923h-10.192c-2.206 0-4 1.794-4 4s1.794 4 4 4v.653l-.245.328c-.819 1.096-1.925 1.926-3.166 2.438-.814-3.685-2.82-6.942-5.589-9.342v-5.077h1c1.116 0 2.136-.38 2.969-1h16.031v-4h4v4h8z"/><path d="m49 25h2v2h-2z"/><path d="m57 25h2v2h-2z"/><path d="m53 25h2v2h-2z"/><path d="m35 25h2v2h-2z"/><path d="m31 25h2v2h-2z"/></g></g></svg>