<svg id="Solid" enable-background="new 0 0 512 512" viewBox="0 0 512 512" xmlns="http://www.w3.org/2000/svg" width="300" height="300" version="1.1" xmlns:xlink="http://www.w3.org/1999/xlink" xmlns:svgjs="http://svgjs.dev/svgjs"><g width="100%" height="100%" transform="matrix(1,0,0,1,0,0)"><path d="m156.687 256-64-64h-49.374l58.343 58.343c3.125 3.124 3.125 8.189 0 11.313l-58.343 58.344h49.373z" fill="#6c63ff" fill-opacity="1" data-original-color="#000000ff" stroke="none" stroke-opacity="1"/><path d="m203.313 192 58.343 58.343c3.125 3.124 3.125 8.189 0 11.313l-58.343 58.344h49.373l64-64-64-64z" fill="#6c63ff" fill-opacity="1" data-original-color="#000000ff" stroke="none" stroke-opacity="1"/><path d="m363.313 192 58.343 58.343c3.125 3.124 3.125 8.189 0 11.313l-58.343 58.344h49.373l64-64-64-64z" fill="#6c63ff" fill-opacity="1" data-original-color="#000000ff" stroke="none" stroke-opacity="1"/></g></svg>