<svg id="Layer_1" enable-background="new 0 0 512 512" viewBox="0 0 512 512" xmlns="http://www.w3.org/2000/svg"><g><g><g><g><g><path d="m357.9 172.7h-162.1c-6.7 0-12.1 5.4-12.1 12.1v64c0 6.7 5.5 12.1 12.1 12.1h162.1c6.7 0 12.1-5.5 12.1-12.1v-64c0-6.7-5.4-12.1-12.1-12.1zm1.2 76.2c0 .7-.5 1.2-1.2 1.2h-162.1c-.7 0-1.2-.5-1.2-1.2v-64c0-.7.5-1.2 1.2-1.2h162.1c.7 0 1.2.5 1.2 1.2z" fill="#231f20"/></g></g></g></g><g><g><g><g><path d="m359.1 184.9v64c0 .7-.5 1.2-1.2 1.2h-162.1c-.7 0-1.2-.5-1.2-1.2v-64c0-.7.5-1.2 1.2-1.2h162.1c.7 0 1.2.5 1.2 1.2z" fill="#edf4f4"/></g></g></g></g><g><g><g><g><path d="m225.9 288.4h-24.7c-6.2 0-11.3 5-11.3 11.2v24.7c0 6.2 5.1 11.2 11.3 11.2h24.7c6.2 0 11.3-5 11.3-11.2v-24.7c0-6.1-5.1-11.2-11.3-11.2zm.4 36c0 .2-.2.3-.4.3l-25.1-.3.4-25.1 25.1.3z" fill="#231f20"/></g></g></g></g><g><g><g><g><path d="m289.2 288.4h-24.7c-6.2 0-11.2 5-11.2 11.2v24.7c0 6.2 5 11.2 11.2 11.2h24.7c6.2 0 11.2-5 11.2-11.2v-24.7c.1-6.1-5-11.2-11.2-11.2zm.4 36c0 .2-.2.3-.3.3l-25.1-.3.3-25.1 25.1.3z" fill="#231f20"/></g></g></g></g><g><g><g><g><path d="m225.9 346.7h-24.7c-6.2 0-11.3 5-11.3 11.2v24.7c0 6.2 5.1 11.2 11.3 11.2h24.7c6.2 0 11.3-5.1 11.3-11.2v-24.6c0-6.2-5.1-11.3-11.3-11.3zm.4 36c0 .2-.2.3-.4.3l-25.1-.3.4-25.1 25.1.3z" fill="#231f20"/></g></g></g></g><g><g><g><g><path d="m289.2 346.7h-24.7c-6.2 0-11.2 5-11.2 11.2v24.7c0 6.2 5 11.2 11.2 11.2h24.7c6.2 0 11.2-5.1 11.2-11.2v-24.6c.1-6.2-5-11.3-11.2-11.3zm.4 36c0 .2-.2.3-.3.3l-25.1-.3.3-25.1 25.1.3z" fill="#231f20"/></g></g></g></g><g><g><g><g><path d="m225.9 405h-24.7c-6.2 0-11.3 5.1-11.3 11.2v24.8c0 6.2 5.1 11.3 11.3 11.3h24.7c6.2 0 11.3-5.1 11.3-11.3v-24.7c0-6.2-5.1-11.3-11.3-11.3zm.4 36c0 .2-.2.4-.4.4l-25.1-.4.4-25.1 25.1.3z" fill="#231f20"/></g></g></g></g><g><g><g><g><path d="m289.2 405h-24.7c-6.2 0-11.2 5.1-11.2 11.2v24.8c0 6.2 5 11.3 11.2 11.3h24.7c6.2 0 11.2-5.1 11.2-11.3v-24.7c.1-6.2-5-11.3-11.2-11.3zm.4 36c0 .2-.2.4-.3.4l-25.1-.4.3-25.1 25.1.3z" fill="#231f20"/></g></g></g></g><g><g><g><g><path d="m352.6 405h-24.7c-6.2 0-11.2 5.1-11.2 11.2v24.8c0 6.2 5 11.3 11.2 11.3h24.7c6.2 0 11.2-5.1 11.2-11.3v-24.7c0-6.2-5.1-11.3-11.2-11.3zm.3 36c0 .2-.2.4-.3.4l-25.1-.4.3-25.1 25.1.3z" fill="#231f20"/></g></g></g></g><g><g><g><g><path d="m491.7 410.2h-22.4c.6-10.9 6.8-97.7 6.4-106.2 0-61.8-25.3-121.5-70.3-163.4v-12c0-12.3-10.1-22.4-22.4-22.4h-39v-70c0-1.5-.7-3.1-1.9-4.1l-12.3-10.8c-2.1-1.8-5.2-1.8-7.2 0l-8.7 7.8c-13.6-12.2-11.1-12.1-24.7 0-13.6-12.2-11.1-12.1-24.6 0-13.6-12.2-11.1-12.1-24.6 0l-8.6-7.7c-2.1-1.9-5.2-1.9-7.3-.1l-12.5 10.7c-1.1 1-1.9 2.6-1.9 4.1v70h-39c-12.4 0-22.4 10.1-22.4 22.4v22h-126.6c-11.4 0-20.7 9.3-20.7 20.7v140.5c0 11.4 9.3 20.7 20.7 20.7h126.6v137.4c0 12.3 10 22.4 22.4 22.4h212.3c9 0 16.9-5.4 20.4-13.3h88.3c10.6 0 19.3-8.6 19.3-19.3v-30c0-10.7-8.7-19.4-19.3-19.4zm-343.4-88.7h-126.6c-5.4 0-9.8-4.4-9.8-9.8v-140.4c0-5.4 4.4-9.8 9.8-9.8h126.6zm72.4-282.9 6.9-6 8.6 7.6c2 1.7 5.5 1.8 7.4 0l8.6-7.6 8.5 7.6c2 1.8 5.5 1.8 7.5 0l8.5-7.6 8.6 7.6c2 1.7 5.5 1.8 7.5 0l8.6-7.6 8.6 7.6c2 1.8 5.5 1.8 7.5 0l8.6-7.6 6.9 6v105.9h-112.3zm173.8 431.2c0 6.3-5.2 11.5-11.5 11.5h-212.2c-6.4 0-11.5-5.1-11.5-11.5v-341.2c0-6.3 5.1-11.5 11.5-11.5h39v27.5h-11.5c-7.1.1-7.2 10.8 0 10.9h140.2 17c7.1-.1 7.2-10.8 0-10.9h-11.5v-27.5h39c6.3 0 11.5 5.2 11.5 11.5v12.4c-.8 2.5 0 162.5-.3 164.9l-21.5-26.1c-18.8-23.8-58.8-11.4-61.1 18.8-1 10.3 2.7 20.8 10.4 28.1 16.8 17.5 33.5 35.1 50.2 52.5 3.4 14.6 11.2 27.6 22.3 37.3zm9-60c-10.8-8.7-18-20.8-20.9-34.4-.2-1-.7-1.9-1.4-2.7-17.8-18.5-35.6-37.3-53.5-55.8-19.3-24.5 16.1-53.9 36.6-30.2 0 0 31.2 37.8 31.2 37.8 1.4 1.8 3.9 2.5 6.1 1.6 2.1-.8 3.6-2.8 3.6-5.1v-165.5c75.3 80.2 59.6 155.3 53.2 254.6h-54.4c-.2 0-.3-.1-.5-.3zm96.6 29.3h-47.5c-3 0-5.5 2.5-5.5 5.5 0 3.1 2.5 5.5 5.5 5.5h47.5v9.6c0 4.6-3.8 8.4-8.4 8.4h-86.3v-46.8c.4 0 58 .1 58.3-.1h28c4.6 0 8.4 3.8 8.4 8.4z" fill="#231f20"/></g></g></g></g><g><g><g><g><path d="m333 38.6v105.9h-112.3v-105.9l6.9-6 8.6 7.6c2 1.7 5.5 1.8 7.4 0l8.6-7.6 8.5 7.6c2 1.8 5.5 1.8 7.5 0l8.5-7.6 8.6 7.6c2 1.7 5.5 1.8 7.5 0l8.6-7.6 8.6 7.6c2 1.8 5.5 1.8 7.5 0l8.6-7.6z" fill="#edf4f4"/></g></g></g></g><g><g><g><g><path d="m464.3 318.2-6 91.9h-54.4c-11-8.8-18.4-20.9-21.3-34.8-.2-1-.7-1.9-1.4-2.7-17.8-18.5-35.6-37.3-53.5-55.8-19.3-24.5 16-53.9 36.6-30.2 0 0 31.2 37.8 31.2 37.8 1.4 1.8 3.9 2.5 6.1 1.6 2.1-.8 3.6-2.8 3.6-5.1v-165.4c41.6 43 63.1 102.1 59.1 162.7z" fill="#f8daae"/></g></g></g></g><g><g><g><g><path d="m312 295.2c5-28.2 42.9-37.9 60.7-15.4 0 0 21.5 26.1 21.5 26.1v-163.2c0-.5.1-1 .2-1.5.1-.1 0-.1.1-.2v-12.4c0-6.3-5.2-11.5-11.5-11.5h-39v27.5h11.5c7.1.1 7.2 10.8 0 10.9-4.8 0-130.7 0-140.2 0-.1 0-16.9 0-17 0-7.1-.1-7.2-10.8 0-10.9h11.5v-27.5h-39c-6.4 0-11.5 5.2-11.5 11.5v341.2c0 6.3 5.1 11.5 11.5 11.5h212.2c6.3.1 11.5-5.2 11.5-11.5v-53.3c-11.1-9.7-18.9-22.7-22.3-37.3-16.7-17.4-33.5-34.9-50.2-52.5-8.6-8.1-12.2-20.2-10-31.5zm4.6 121c0-6.2 5-11.2 11.2-11.2h24.7c6.2 0 11.2 5.1 11.2 11.2v24.8c0 6.2-5.1 11.3-11.2 11.3h-24.7c-6.2 0-11.2-5.1-11.2-11.3zm-79.4 24.8c0 6.2-5.1 11.3-11.3 11.3h-24.7c-6.2 0-11.3-5.1-11.3-11.3v-24.7c0-6.2 5.1-11.2 11.3-11.2h24.7c6.2 0 11.3 5.1 11.3 11.2zm0-58.3c0 6.2-5.1 11.2-11.3 11.2h-24.7c-6.2 0-11.3-5.1-11.3-11.2v-24.7c0-6.2 5.1-11.2 11.3-11.2h24.7c6.2 0 11.3 5 11.3 11.2zm0-58.3c0 6.2-5.1 11.2-11.3 11.2h-24.7c-6.2 0-11.3-5-11.3-11.2v-24.7c0-6.2 5.1-11.2 11.3-11.2h24.7c6.2 0 11.3 5 11.3 11.2zm63.3 116.6c0 6.2-5 11.3-11.2 11.3h-24.7c-6.2 0-11.2-5.1-11.2-11.3v-24.7c0-6.2 5-11.2 11.2-11.2h24.7c6.2 0 11.2 5.1 11.2 11.2zm0-58.3c0 6.2-5 11.2-11.2 11.2h-24.7c-6.2 0-11.2-5.1-11.2-11.2v-24.7c0-6.2 5-11.2 11.2-11.2h24.7c6.2 0 11.2 5 11.2 11.2zm0-58.3c0 6.2-5 11.2-11.2 11.2h-24.7c-6.2 0-11.2-5-11.2-11.2v-24.7c0-6.2 5-11.2 11.2-11.2h24.7c6.2 0 11.2 5 11.2 11.2zm-104.7-63.4c-6.7 0-12.1-5.5-12.1-12.1v-64c0-6.7 5.5-12.1 12.1-12.1h162.1c6.7 0 12.1 5.4 12.1 12.1v64c0 6.7-5.5 12.1-12.1 12.1z" fill="#547c96"/></g></g></g></g><g><g><g><g><path d="m289.6 299.7v24.7c0 .2-.2.3-.3.3l-25.1-.3.3-25.1z" fill="#edf4f4"/></g></g></g></g><g><g><g><g><path d="m289.6 358v24.7c0 .2-.2.3-.3.3l-25.1-.3.3-25.1z" fill="#edf4f4"/></g></g></g></g><g><g><g><g><path d="m352.9 416.2v24.8c0 .2-.2.4-.3.4l-25.1-.4.3-25.1z" fill="#edf4f4"/></g></g></g></g><g><g><g><g><path d="m289.6 416.2v24.8c0 .2-.2.4-.3.4l-25.1-.4.3-25.1z" fill="#edf4f4"/></g></g></g></g><g><g><g><g><path d="m226.3 416.2v24.8c0 .2-.2.4-.4.4l-25.1-.4.4-25.1z" fill="#edf4f4"/></g></g></g></g><g><g><g><g><path d="m226.3 358v24.7c0 .2-.2.3-.4.3l-25.1-.3.4-25.1z" fill="#edf4f4"/></g></g></g></g><g><g><g><g><path d="m226.3 299.7v24.7c0 .2-.2.3-.4.3l-25.1-.3.4-25.1z" fill="#edf4f4"/></g></g></g></g><g><g><g><g><path d="m447.1 444.5c0 3.1 2.5 5.5 5.5 5.5h47.5v9.6c0 4.6-3.8 8.4-8.4 8.4h-86.3v-46.8c.4 0 58 .1 58.3-.1h28c4.6 0 8.4 3.8 8.4 8.4v9.6h-47.5c-3 0-5.5 2.4-5.5 5.4z" fill="#ef9c44"/></g></g></g></g><g><g><g><g><path d="m21.7 161.5c-5.4 0-9.8 4.4-9.8 9.8v140.5c0 5.4 4.4 9.8 9.8 9.8h126.6v-160h-126.6zm7.1 33.3c0-3.9 3.2-7.1 7.1-7.1h54.1c4 0 7.2 3.2 7.2 7.1v16.5c0 3.9-3.2 7.1-7.2 7.1h-54.1c-3.9 0-7.1-3.2-7.1-7.1zm5.5 72.1h36.1c7.2.1 7.2 10.8 0 10.9h-36.1c-7.2-.1-7.2-10.8 0-10.9zm72.2 34.7h-72.2c-7.1-.1-7.2-10.8 0-10.9h72.2c7.2.1 7.2 10.8 0 10.9z" fill="#ef9c44"/></g></g></g></g><g><g><g><g><path d="m90 187.7h-54.1c-3.9 0-7.1 3.2-7.1 7.1v16.5c0 3.9 3.2 7.1 7.1 7.1h54.1c4 0 7.2-3.2 7.2-7.1v-16.5c-.1-3.9-3.2-7.1-7.2-7.1zm-3.8 19.8h-46.4v-8.8h46.5v8.8z" fill="#231f20"/></g></g></g></g><g><g><g><g><path d="m39.8 198.6h46.5v8.8h-46.5z" fill="#edf4f4"/></g></g></g></g><g><g><g><g><path d="m112 296.1c0 3-2.5 5.5-5.5 5.5h-72.2c-3 0-5.5-2.5-5.5-5.5s2.5-5.5 5.5-5.5h72.2c3 .1 5.5 2.5 5.5 5.5z" fill="#231f20"/></g></g></g></g><g><g><g><g><path d="m75.9 272.3c0 3-2.5 5.5-5.5 5.5h-36.1c-3 0-5.5-2.5-5.5-5.5 0-3.1 2.5-5.5 5.5-5.5h36.1c3.1.1 5.5 2.5 5.5 5.5z" fill="#231f20"/></g></g></g></g></g></svg>