<svg id="Layer_5" enable-background="new 0 0 62 62" height="512" viewBox="0 0 62 62" width="512" xmlns="http://www.w3.org/2000/svg"><g><g><path d="m4 44h20v13h-20z" fill="#f0bc5e"/></g><g><path d="m59.918 15.585c-.324-.108-.569-.35-.656-.647-.359-1.227-.855-2.422-1.475-3.555-.146-.265-.15-.596-.015-.892l.02-.039c.587-1.174.357-2.587-.571-3.515l-2.157-2.159c-.931-.928-2.343-1.157-3.52-.568-.306.152-.652.153-.927.003-1.128-.618-2.324-1.114-3.555-1.475-.298-.087-.54-.333-.648-.656-.415-1.245-1.575-2.082-2.888-2.082h-3.053c-1.313 0-2.473.837-2.888 2.082-.108.324-.351.569-.648.656-1.23.361-2.427.857-3.555 1.475-.275.152-.62.15-.931-.004-1.173-.588-2.586-.359-3.516.57l-2.157 2.158c-.929.928-1.158 2.341-.571 3.515l.015.029c.141.299.138.634-.01.903-.619 1.131-1.115 2.327-1.474 3.553-.088.298-.333.54-.657.648-1.244.415-2.081 1.576-2.081 2.889v3.052c0 1.313.837 2.474 2.082 2.889.324.108.569.35.656.647.359 1.227.855 2.422 1.475 3.555.146.265.15.596.015.892l-.02.039c-.587 1.174-.357 2.586.571 3.515l2.157 2.157c.93.93 2.344 1.158 3.516.571l.033-.018c.297-.137.63-.134.898.013 1.131.619 2.327 1.115 3.553 1.474.299.088.541.334.649.657.416 1.246 1.576 2.083 2.889 2.083h3.053c1.313 0 2.473-.837 2.888-2.082.108-.323.351-.569.648-.656 1.227-.359 2.423-.855 3.555-1.475.266-.145.593-.151.888-.017l.043.021c1.172.585 2.585.357 3.516-.571l2.157-2.157c.929-.929 1.158-2.341.571-3.515l-.015-.029c-.141-.299-.138-.634.01-.903.619-1.131 1.115-2.327 1.474-3.553.088-.298.333-.54.657-.648 1.244-.415 2.081-1.576 2.081-2.889v-3.052c0-1.313-.837-2.474-2.082-2.889zm-17.918 17.415c-7.18 0-13-5.82-13-13s5.82-13 13-13 13 5.82 13 13-5.82 13-13 13z" fill="#f0bc5e"/></g><g><path d="m38 22c0-1.654-1.346-3-3-3-.552 0-1-.449-1-1s.448-1 1-1 1 .449 1 1h2c0-1.654-1.346-3-3-3s-3 1.346-3 3 1.346 3 3 3c.552 0 1 .449 1 1s-.448 1-1 1-1-.449-1-1h-2c0 1.654 1.346 3 3 3s3-1.346 3-3z"/><path d="m42 25h2v-2h-2v-2h2v-2h-2v-2h2v-2h-2c-1.103 0-2 .897-2 2v6c0 1.103.897 2 2 2z"/><path d="m49 25c1.654 0 3-1.346 3-3v-4c0-1.654-1.346-3-3-3s-3 1.346-3 3v4c0 1.654 1.346 3 3 3zm-1-7c0-.551.448-1 1-1s1 .449 1 1v4c0 .551-.448 1-1 1s-1-.449-1-1z"/><path d="m4 18h2v2h-2z"/><path d="m12 18h2v2h-2z"/><path d="m8 18h2v2h-2z"/><path d="m30 48v10h22v-18h-6v16h-2v-12h-6v12h-2v-8zm18-6h2v14h-2zm-8 4h2v10h-2zm-6 10h-2v-6h2z"/><path d="m24 26h-20v16h20z" fill="#f0bc5e"/><path d="m54 35.902v23.098c0 .552-.448 1-1 1h-50c-.552 0-1-.448-1-1v-35h21.274c-.659-.471-1.11-1.188-1.237-2h-20.037v-5c0-.551.448-1 1-1h20.274c.243-.174.513-.317.808-.415.324-.108.569-.35.657-.648.093-.317.22-.625.33-.937h-22.069c-1.654 0-3 1.346-3 3v42c0 1.654 1.346 3 3 3h50c1.654 0 3-1.346 3-3v-24.716l-.937.937c-.309.308-.674.532-1.063.681z"/><path d="m42 34c7.72 0 14-6.28 14-14s-6.28-14-14-14-14 6.28-14 14 6.28 14 14 14zm0-26c6.617 0 12 5.383 12 12s-5.383 12-12 12-12-5.383-12-12 5.383-12 12-12z"/><path d="m4 44h6v2h-6z"/><path d="m12 44h12v2h-12z"/><path d="m4 48h20v2h-20z"/><path d="m4 52h2v2h-2z"/><path d="m8 52h16v2h-16z"/><path d="m4 56h20v2h-20z"/></g></g></svg>