<svg height="496pt" viewBox="0 0 496 496" width="496pt" xmlns="http://www.w3.org/2000/svg"><path d="m80 128v136h64v-64h72v-32h184v-40zm0 0" fill="#f0bc5e"/><path d="m410.753906 307.007812c-2.882812-10.207031-6.953125-20.03125-12.144531-29.289062l9.878906-20.183594-42.023437-42.023437-20.183594 9.878906c-9.257812-5.183594-19.082031-9.253906-29.289062-12.144531l-7.273438-21.246094h-59.4375l-7.273438 21.246094c-10.207031 2.882812-20.03125 6.953125-29.289062 12.144531l-20.183594-9.878906-42.023437 42.023437 9.878906 20.183594c-5.183594 9.257812-9.253906 19.082031-12.144531 29.289062l-21.246094 7.273438v29.71875h56c0-53.015625 42.984375-96 96-96s96 42.984375 96 96c0 5.464844-.558594 10.785156-1.441406 16h57.441406v-45.71875zm0 0" fill="#f0bc5e"/><path d="m176 368h16v16h-16zm0 0"/><path d="m144 368h16v16h-16zm0 0"/><path d="m112 368h16v16h-16zm0 0"/><path d="m248 0c-42.761719 0-84.808594 11.097656-121.808594 32h-78.191406v69.472656c-31.359375 42.726563-48 93.304688-48 146.527344 0 136.742188 111.257812 248 248 248s248-111.257812 248-248-111.257812-248-248-248zm184 106.929688c5.160156 6.710937 9.816406 13.8125 14.230469 21.070312h-14.230469zm-184-90.929688c29.808594 0 58.296875 5.710938 84.496094 16h-168.992188c26.792969-10.464844 55.457032-16 84.496094-16zm-184 32h301.367188c18.722656 11.023438 35.746093 24.609375 50.632812 40.246094v7.753906h-352zm0 64h352v176h-12.398438c2.359376 5.207031 4.421876 10.527344 6.101563 16h22.296875v-160h23.121094c15.808594 31.320312 24.878906 66.585938 24.878906 104 0 37.382812-8.9375 72.695312-24.710938 104h-71.617187c.199219-2.664062.328125-5.328125.328125-8 0-57.34375-46.65625-104-104-104-54.648438 0-99.488281 42.390625-103.59375 96h-80.40625v-32h54.289062c1.6875-5.472656 3.742188-10.792969 6.101563-16h-92.390625zm343.753906 304c-12.097656 11.511719-25.394531 21.777344-39.746094 30.480469v-30.480469zm-167.21875-16v16h111.464844v32h-128v-48h-104c-13.230469 0-24-10.769531-24-24v-24h93.574219l24 16h232.90625c-6.886719 11.351562-14.769531 22.023438-23.441407 32zm127.082032-48h-39.617188l18-24-27.601562-36.800781-12.796876 9.601562 20.398438 27.199219-18 24h-25.527344l21.246094-77.894531-15.4375-4.210938-22.394531 82.105469h-13.886719l-18-24 20.398438-27.199219-12.796876-9.601562-27.601562 36.800781 18 24h-13.574219l-24-16h-2.019531c4.058594-44.785156 41.769531-80 87.59375-80 48.519531 0 88 39.480469 88 88 0 2.671875-.144531 5.34375-.382812 8zm-351.617188-104c0-41.839844 11.105469-81.886719 32-117.34375v173.34375h32v72c0 22.054688 17.945312 40 40 40h88v32h-32v16h156.496094c-26.207032 10.289062-54.6875 16-84.496094 16-127.929688 0-232-104.070312-232-232zm0 0"/><path d="m80 64h16v16h-16zm0 0"/><path d="m112 64h16v16h-16zm0 0"/><path d="m144 64h16v16h-16zm0 0"/><path d="m80 128h16v16h-16zm0 0"/><path d="m112 128h288v16h-288zm0 0"/><path d="m80 160h320v16h-320zm0 0"/><path d="m80 192h136v16h-136zm0 0"/><path d="m80 224h64v16h-64zm0 0"/><path d="m80 256h64v16h-64zm0 0"/></svg>